<?xml version="1.0" encoding="UTF-8" standalone="no"?>
<!-- Created with Inkscape (http://www.inkscape.org/) -->

<svg
   width="67.341873mm"
   height="81.472427mm"
   viewBox="0 0 67.341873 81.472428"
   version="1.1"
   id="svg407"
   xml:space="preserve"
   sodipodi:docname="Logo.svg"
   inkscape:version="1.2.2 (732a01da63, 2022-12-09)"
   xmlns:inkscape="http://www.inkscape.org/namespaces/inkscape"
   xmlns:sodipodi="http://sodipodi.sourceforge.net/DTD/sodipodi-0.dtd"
   xmlns="http://www.w3.org/2000/svg"
   xmlns:svg="http://www.w3.org/2000/svg"><sodipodi:namedview
     id="namedview409"
     pagecolor="#ffffff"
     bordercolor="#000000"
     borderopacity="0.25"
     inkscape:showpageshadow="2"
     inkscape:pageopacity="0.0"
     inkscape:pagecheckerboard="0"
     inkscape:deskcolor="#d1d1d1"
     inkscape:document-units="mm"
     showgrid="false"
     inkscape:zoom="4.7572176"
     inkscape:cx="127.28028"
     inkscape:cy="153.97656"
     inkscape:window-width="2400"
     inkscape:window-height="1321"
     inkscape:window-x="2395"
     inkscape:window-y="-9"
     inkscape:window-maximized="1"
     inkscape:current-layer="layer1" /><defs
     id="defs404" /><g
     inkscape:label="Layer 1"
     inkscape:groupmode="layer"
     id="layer1"
     transform="translate(-102.6422,-154.71175)"><path
       style="fill:#000000;stroke-width:0.182498"
       d="m 130.82385,235.83201 c -0.73189,-0.3324 -1.53689,-1.14582 -1.53689,-1.55295 0,-0.11403 0.35497,-0.40124 0.78883,-0.63824 l 0.78884,-0.43092 0.48036,0.48035 c 0.54647,0.54648 1.48258,0.64528 2.05892,0.2173 0.55973,-0.41564 0.13115,-0.85624 -1.37397,-1.41249 -1.54385,-0.57057 -2.13119,-1.05788 -2.37749,-1.9726 -0.46205,-1.71589 0.7797,-3.10429 2.77639,-3.10429 1.12914,0 2.02086,0.41288 2.64794,1.22603 l 0.42892,0.55619 -0.81502,0.47763 c -0.97864,0.57352 -1.05461,0.57987 -1.34641,0.11263 -0.28158,-0.45089 -1.45609,-0.51537 -1.61973,-0.0889 -0.16484,0.42956 0.2094,0.73709 1.44345,1.18615 0.69838,0.25414 1.40193,0.67769 1.82204,1.0969 0.61149,0.61019 0.68437,0.78169 0.68437,1.61052 0,0.77595 -0.092,1.03236 -0.56251,1.56828 -0.90529,1.03107 -2.82926,1.33099 -4.28804,0.66844 z m 16.55296,0.13592 c -0.94112,-0.27069 -2.45641,-1.89161 -2.74892,-2.94054 -0.8617,-3.09003 1.92694,-6.11622 5.03767,-5.4668 0.97048,0.2026 2.33252,0.97319 2.50234,1.41572 0.0562,0.14649 -0.20221,0.48649 -0.62312,0.81986 l -0.71915,0.56958 -0.51494,-0.36666 c -0.72455,-0.51593 -1.37687,-0.6412 -2.09863,-0.403 -1.71927,0.56742 -2.19122,2.65824 -0.88296,3.91164 0.67709,0.6487 1.74937,0.81876 2.55047,0.40449 0.84776,-0.43839 0.70709,-0.6541 -0.42655,-0.6541 h -1.00374 v -0.91249 -0.9125 h 2.37248 2.37248 l -0.004,0.77562 c -0.0113,2.17903 -2.03845,4.00141 -4.39713,3.95288 -0.44003,-0.009 -1.07737,-0.0962 -1.41629,-0.1937 z m -37.98217,-4.1698 v -4.19746 h 2.33975 c 2.19059,0 2.40293,0.032 3.3306,0.50187 3.38615,1.71512 2.91993,6.69616 -0.72143,7.70763 -0.36311,0.10086 -1.62517,0.18385 -2.80456,0.1844 l -2.14436,10e-4 z m 4.32246,2.17782 c 1.71961,-0.65154 2.11658,-2.63821 0.78253,-3.91631 -0.48181,-0.4616 -0.72196,-0.54095 -1.82614,-0.60334 l -1.27137,-0.0718 v 2.27141 c 0,1.24928 0.0547,2.32616 0.12167,2.39307 0.19034,0.19035 1.62423,0.14263 2.19331,-0.073 z m 7.04616,-2.13219 0.0375,-4.15184 2.69185,-0.0505 2.69185,-0.0505 v 0.91737 0.91737 h -1.64248 -1.64248 v 0.63875 0.63874 h 1.45998 1.45999 v 0.91249 0.91249 h -1.45999 -1.45998 v 0.82125 0.82124 h 1.64248 1.64249 v 0.91249 0.91249 h -2.72938 -2.72937 z m 18.19611,-0.0456 v -4.19746 h 1.09499 1.09499 v 4.19746 4.19746 h -1.09499 -1.09499 z m 17.70234,0 v -4.19746 h 1.04962 1.04963 l 1.14893,1.80975 c 1.67873,2.64428 1.67927,2.64435 1.67927,0.22008 v -2.02983 h 1.00375 1.00374 v 4.19746 4.19746 h -0.89096 -0.89095 l -1.4359,-2.28077 c -0.78975,-1.25442 -1.49749,-2.28097 -1.57277,-2.28123 -0.0753,-2.5e-4 -0.13688,1.0261 -0.13688,2.28077 v 2.28123 h -1.00374 -1.00374 z m -52.74193,-12.24995 c -0.58022,-0.23137 -1.27758,-0.8819 -1.27758,-1.19181 0,-0.13103 0.33631,-0.4098 0.74736,-0.6195 0.70875,-0.36158 0.7653,-0.36505 1.09444,-0.0672 0.44383,0.40166 1.45102,0.37929 1.7569,-0.039 0.16807,-0.22986 0.23377,-1.18176 0.23377,-3.38729 v -3.06759 h 1.00374 1.00374 v 3.1361 c 0,3.65702 -0.19608,4.34404 -1.43923,5.04273 -0.76908,0.43224 -2.28842,0.52641 -3.12314,0.19356 z m 39.41955,9.2e-4 c -0.60917,-0.24163 -1.64286,-1.25647 -1.64098,-1.61105 9.1e-4,-0.15596 0.34406,-0.4696 0.76274,-0.69697 l 0.76123,-0.41339 0.49816,0.47727 c 0.82828,0.79354 2.58812,0.52717 2.25486,-0.34129 -0.0632,-0.16466 -0.57948,-0.46516 -1.14732,-0.66778 -2.27725,-0.81261 -3.05306,-1.62182 -2.88147,-3.00557 0.29073,-2.34457 3.45967,-3.12252 5.27087,-1.29395 0.27603,0.27867 0.50187,0.61164 0.50187,0.73994 0,0.12829 -0.36373,0.43655 -0.8083,0.68502 l -0.80829,0.45177 -0.40976,-0.43617 c -0.62181,-0.66189 -1.73506,-0.51086 -1.595,0.21639 0.0425,0.2208 0.47429,0.49341 1.26612,0.79938 0.66087,0.25537 1.41838,0.6088 1.68336,0.7854 1.58398,1.05568 1.26788,3.48853 -0.55413,4.26488 -0.67351,0.28698 -2.48014,0.3134 -3.15396,0.0461 z m 10.21991,-0.0864 c -2.22883,-0.96391 -3.28745,-3.7919 -2.20554,-5.89184 0.82999,-1.61097 2.13682,-2.38567 4.03052,-2.38933 3.56781,-0.007 5.52491,3.84758 3.47005,6.83422 -1.04583,1.52006 -3.54613,2.20331 -5.29503,1.44695 z m 2.99891,-2.07216 c 0.69567,-0.45858 1.00158,-1.0311 1.00958,-1.88946 0.0133,-1.42544 -0.90239,-2.31779 -2.37841,-2.31779 -0.64011,0 -0.87272,0.11218 -1.46905,0.70852 -0.62354,0.62353 -0.70853,0.81219 -0.70853,1.57271 0,0.76052 0.085,0.94917 0.70853,1.57271 0.60743,0.60743 0.82225,0.70835 1.50561,0.70732 0.47992,-7.3e-4 1.01004,-0.14159 1.33227,-0.35401 z m -44.06104,-2.01727 v -4.19746 h 2.64623 2.64622 v 0.90538 0.90539 l -1.59686,0.0527 -1.59686,0.0527 -0.0566,0.58556 -0.0566,0.58556 1.51661,0.0532 1.51661,0.0532 0.0553,0.85933 0.0553,0.85933 -1.5153,0.0532 -1.5153,0.0532 -0.0558,0.76864 -0.0558,0.76863 1.69826,0.0526 1.69826,0.0526 0.0556,0.86686 0.0556,0.86687 h -2.74747 -2.74747 z m 10.67198,3.97811 c -0.0499,-0.13029 -0.57087,-2.00257 -1.15776,-4.16061 l -1.06706,-3.92371 1.00632,-0.0556 c 0.56916,-0.0314 1.0579,0.0279 1.12505,0.13652 0.0653,0.10566 0.35557,1.17776 0.64504,2.38244 0.28946,1.20468 0.58002,2.19033 0.64568,2.19033 0.0657,0 0.30214,-0.63646 0.52551,-1.41436 0.22337,-0.7779 0.53038,-1.84925 0.68224,-2.38079 l 0.27611,-0.96642 1.1111,0.0539 1.1111,0.0539 0.65222,2.32685 c 0.35872,1.27977 0.70281,2.32685 0.76463,2.32685 0.0618,0 0.38453,-1.06761 0.71712,-2.37247 l 0.6047,-2.37248 h 1.07522 c 0.93785,0 1.0633,0.0408 0.98201,0.31937 -0.0513,0.17565 -0.56381,2.06451 -1.13899,4.19746 l -1.04578,3.87809 h -1.1435 -1.1435 l -0.45275,-1.50561 c -0.24902,-0.82809 -0.55521,-1.85727 -0.68043,-2.28709 -0.12522,-0.42981 -0.28937,-0.71724 -0.36478,-0.63874 -0.0754,0.0785 -0.42105,1.08716 -0.76809,2.24146 l -0.631,2.09873 -1.11985,0.0544 c -0.79075,0.0384 -1.14652,-0.0152 -1.21056,-0.1825 z m 13.0528,-3.97811 v -4.19746 h 1.00375 1.00374 v 4.19746 4.19746 h -1.00374 -1.00375 z m 26.88099,0.0456 0.0375,-4.15183 1.02811,-0.0541 1.02811,-0.0541 1.25312,2.00896 c 0.68921,1.10493 1.31471,2.01211 1.38999,2.01596 0.0753,0.004 0.13687,-0.89638 0.13687,-2.00049 v -2.00748 h 1.00374 1.00375 v 4.19746 4.19746 h -0.86858 -0.86857 l -1.44466,-2.27964 c -0.79456,-1.2538 -1.48171,-2.24259 -1.527,-2.1973 -0.0453,0.0453 -0.0703,1.07112 -0.0555,2.27964 l 0.0268,2.1973 h -1.0906 -1.0906 z M 135.0804,204.72151 c -0.80968,-0.30216 -18.42703,-11.45998 -19.16814,-12.13999 -1.03688,-0.95141 -1.06149,-1.27681 -1.00388,-13.27624 0.0571,-11.88753 0.0189,-11.45125 1.08449,-12.40228 0.23537,-0.21008 3.50762,-2.33982 7.27164,-4.73276 3.76403,-2.39294 7.64165,-4.86649 8.61694,-5.49678 2.83828,-1.83428 3.14394,-1.96171 4.70544,-1.96171 1.04781,0 1.54573,0.0924 2.12359,0.39415 1.13928,0.59488 18.16309,11.51521 18.6389,11.95636 0.91372,0.84718 0.95481,1.39273 0.95481,12.67615 0,7.058 -0.0659,10.73279 -0.20226,11.27424 -0.11125,0.44179 -0.46028,1.08818 -0.77562,1.43642 -0.48567,0.53633 -16.99568,11.1677 -18.75878,12.07944 -0.80219,0.41483 -2.62273,0.51559 -3.48713,0.193 z m 3.01796,-3.46895 c 1.06262,-0.4539 16.27451,-10.28898 16.61361,-10.74134 0.18231,-0.24322 0.4062,-0.76435 0.49752,-1.15808 0.2165,-0.93351 0.2165,-18.20057 0,-19.13408 -0.0913,-0.39373 -0.32247,-0.92753 -0.51368,-1.18624 -0.34241,-0.4633 -14.95417,-9.92822 -16.37518,-10.6072 -0.80763,-0.3859 -2.33193,-0.46728 -3.12249,-0.16671 -0.72243,0.27466 -16.16648,10.11226 -16.56286,10.55025 -0.79716,0.88085 -0.82951,1.29987 -0.83335,10.79444 -0.002,4.96852 0.0711,9.35581 0.16237,9.74954 0.0913,0.39373 0.32255,0.92551 0.51384,1.18173 0.34545,0.46269 14.97784,9.94554 16.37502,10.61221 0.86642,0.4134 2.40709,0.46348 3.2452,0.10548 z m -7.11324,-14.77987 c 0.56645,-0.27714 1.31501,-0.83696 1.66345,-1.24404 1.14017,-1.33203 1.20085,-1.74239 1.20085,-8.12128 v -5.71619 h -1.90887 -1.90886 l -0.053,5.76502 -0.053,5.76502 -0.43084,0.34867 c -0.27772,0.22476 -0.71533,0.34868 -1.23134,0.34868 -0.65551,0 -0.92607,-0.11345 -1.49383,-0.62639 l -0.69333,-0.62638 -1.49717,0.81961 c -0.82345,0.45078 -1.49718,0.93249 -1.49718,1.07047 0,0.50083 1.7312,2.03929 2.74498,2.43938 1.45682,0.57493 3.72843,0.47691 5.15813,-0.22257 z m 12.10442,0.22371 c 1.31879,-0.49342 2.45909,-1.53924 3.01222,-2.76265 0.42407,-0.93796 0.43129,-1.05014 0.43129,-6.70263 v -5.74869 l -1.87061,-0.052 -1.87061,-0.052 -0.001,5.16196 c -0.001,5.51677 -0.10284,6.35119 -0.83285,6.82951 -0.72372,0.4742 -2.03956,0.24304 -2.67691,-0.47028 l -0.51139,-0.57235 -1.17998,0.65988 c -0.64899,0.36294 -1.35052,0.79797 -1.55895,0.96675 l -0.37896,0.30687 0.49888,0.63702 c 0.27438,0.35037 0.74417,0.83884 1.04398,1.08549 1.33949,1.102 3.99649,1.42343 5.89491,0.71314 z"
       id="path304"
       sodipodi:nodetypes="ssscsssssscsssssscssssssscssssscccccscssccssssccssccscssccccccccccccccccccccccccccccccccccccccsscccccccsssccccsssssscccsssscscssssssscssssssssscssssssssssccccccccccccccccccccccccccsccssssscccssscscscccsssscscccccccccccccccscscccccccsscccccsssssssssssssssssssssssssssssscccccssscssssscssccccsscsscsscc" /></g></svg>
