<?xml version="1.0" encoding="UTF-8"?>
<svg width="253.99999999999997mm" height="190.5mm" viewBox="0 0 253.99999999999997 190.5" xmlns="http://www.w3.org/2000/svg">
  <rect x="0" y="0" width="253.99999999999997" height="190.5" stroke="black" stroke-width="0.5" fill="none"/>
  <text x="126.99999999999999" y="10" text-anchor="middle" font-size="6" font-weight="bold">Flat Pattern - ccp0871.stp</text>
  <text x="126.99999999999999" y="16" text-anchor="middle" font-size="4">Scale: 0.125:1</text>
  <text x="126.99999999999999" y="22" text-anchor="middle" font-size="5" fill="#666">K-Factor: 0.35</text>
  <text x="126.99999999999999" y="28" text-anchor="middle" font-size="5" fill="#666">Thickness: 0.0630" (~16ga)</text>
  <g transform="translate(201.99999999999997, 2)">
  <g id="bent_preview">
    <rect x="0" y="0" width="50" height="50" fill="white" stroke="black" stroke-width="0.5"/>
    <text x="25.0" y="8" text-anchor="middle" font-size="4" font-weight="bold">Bent State</text>
    <line x1="7.4" y1="27.9" x2="7.4" y2="7.1" stroke="black" stroke-width="0.3"/>
    <line x1="7.4" y1="45.0" x2="7.4" y2="29.8" stroke="black" stroke-width="0.3"/>
    <line x1="7.4" y1="27.9" x2="7.4" y2="27.9" stroke="black" stroke-width="0.3"/>
    <line x1="7.4" y1="27.9" x2="7.4" y2="7.1" stroke="black" stroke-width="0.3"/>
    <line x1="7.4" y1="45.0" x2="7.4" y2="29.8" stroke="black" stroke-width="0.3"/>
    <line x1="7.4" y1="7.1" x2="7.4" y2="7.1" stroke="black" stroke-width="0.3"/>
    <line x1="7.4" y1="45.0" x2="7.4" y2="45.0" stroke="black" stroke-width="0.3"/>
    <line x1="7.4" y1="29.8" x2="7.4" y2="29.8" stroke="black" stroke-width="0.3"/>
    <line x1="7.4" y1="27.9" x2="7.4" y2="27.9" stroke="black" stroke-width="0.3"/>
    <line x1="7.4" y1="27.9" x2="7.4" y2="27.9" stroke="black" stroke-width="0.3"/>
    <line x1="7.4" y1="29.8" x2="7.4" y2="29.8" stroke="black" stroke-width="0.3"/>
    <line x1="7.4" y1="29.8" x2="7.4" y2="29.8" stroke="black" stroke-width="0.3"/>
    <line x1="7.4" y1="27.9" x2="7.4" y2="28.0" stroke="black" stroke-width="0.3"/>
    <line x1="7.4" y1="27.9" x2="7.4" y2="27.9" stroke="black" stroke-width="0.3"/>
    <line x1="7.4" y1="29.8" x2="7.4" y2="29.7" stroke="black" stroke-width="0.3"/>
    <line x1="7.4" y1="29.8" x2="7.4" y2="29.8" stroke="black" stroke-width="0.3"/>
    <line x1="7.4" y1="28.0" x2="7.4" y2="27.9" stroke="black" stroke-width="0.3"/>
    <line x1="7.4" y1="28.0" x2="7.4" y2="28.0" stroke="black" stroke-width="0.3"/>
    <line x1="7.4" y1="29.7" x2="7.4" y2="29.8" stroke="black" stroke-width="0.3"/>
    <line x1="7.4" y1="29.7" x2="7.4" y2="29.7" stroke="black" stroke-width="0.3"/>
    <line x1="7.4" y1="28.0" x2="7.4" y2="28.0" stroke="black" stroke-width="0.3"/>
    <line x1="7.4" y1="28.0" x2="7.4" y2="28.0" stroke="black" stroke-width="0.3"/>
    <line x1="7.4" y1="29.7" x2="7.4" y2="29.7" stroke="black" stroke-width="0.3"/>
    <line x1="7.4" y1="29.7" x2="7.4" y2="29.7" stroke="black" stroke-width="0.3"/>
    <line x1="7.4" y1="28.0" x2="7.4" y2="28.0" stroke="black" stroke-width="0.3"/>
    <line x1="7.4" y1="28.0" x2="7.4" y2="28.0" stroke="black" stroke-width="0.3"/>
    <line x1="7.4" y1="29.7" x2="7.4" y2="29.7" stroke="black" stroke-width="0.3"/>
    <line x1="7.4" y1="29.7" x2="7.4" y2="29.6" stroke="black" stroke-width="0.3"/>
    <line x1="7.4" y1="28.0" x2="7.3" y2="28.0" stroke="black" stroke-width="0.3"/>
    <line x1="7.4" y1="28.0" x2="7.4" y2="28.0" stroke="black" stroke-width="0.3"/>
    <line x1="7.3" y1="29.6" x2="7.4" y2="29.7" stroke="black" stroke-width="0.3"/>
    <line x1="7.4" y1="29.6" x2="7.4" y2="29.6" stroke="black" stroke-width="0.3"/>
    <line x1="7.4" y1="28.0" x2="7.4" y2="28.0" stroke="black" stroke-width="0.3"/>
    <line x1="7.3" y1="28.0" x2="7.3" y2="28.0" stroke="black" stroke-width="0.3"/>
    <line x1="7.3" y1="29.6" x2="7.3" y2="29.6" stroke="black" stroke-width="0.3"/>
    <line x1="7.4" y1="29.6" x2="7.4" y2="29.6" stroke="black" stroke-width="0.3"/>
    <line x1="7.3" y1="28.0" x2="7.3" y2="28.0" stroke="black" stroke-width="0.3"/>
    <line x1="7.4" y1="28.0" x2="7.4" y2="28.0" stroke="black" stroke-width="0.3"/>
    <line x1="7.3" y1="29.6" x2="7.3" y2="29.6" stroke="black" stroke-width="0.3"/>
    <line x1="7.4" y1="29.6" x2="7.4" y2="29.6" stroke="black" stroke-width="0.3"/>
    <line x1="7.3" y1="28.0" x2="7.4" y2="28.0" stroke="black" stroke-width="0.3"/>
    <line x1="7.3" y1="28.0" x2="7.3" y2="28.0" stroke="black" stroke-width="0.3"/>
    <line x1="7.3" y1="29.6" x2="7.3" y2="29.6" stroke="black" stroke-width="0.3"/>
    <line x1="7.4" y1="29.6" x2="7.3" y2="29.5" stroke="black" stroke-width="0.3"/>
    <line x1="7.3" y1="28.0" x2="7.3" y2="28.0" stroke="black" stroke-width="0.3"/>
    <line x1="7.3" y1="28.0" x2="7.3" y2="28.0" stroke="black" stroke-width="0.3"/>
    <line x1="7.3" y1="29.6" x2="7.3" y2="29.6" stroke="black" stroke-width="0.3"/>
    <line x1="7.3" y1="29.5" x2="7.3" y2="29.5" stroke="black" stroke-width="0.3"/>
    <line x1="7.3" y1="28.0" x2="7.3" y2="28.0" stroke="black" stroke-width="0.3"/>
    <line x1="7.3" y1="29.5" x2="7.3" y2="29.5" stroke="black" stroke-width="0.3"/>
    <line x1="7.3" y1="28.0" x2="7.2" y2="28.0" stroke="black" stroke-width="0.3"/>
    <line x1="7.2" y1="29.5" x2="7.3" y2="29.6" stroke="black" stroke-width="0.3"/>
    <line x1="7.3" y1="28.0" x2="7.3" y2="28.0" stroke="black" stroke-width="0.3"/>
    <line x1="7.3" y1="29.5" x2="7.3" y2="29.5" stroke="black" stroke-width="0.3"/>
    <line x1="7.2" y1="28.0" x2="7.2" y2="28.0" stroke="black" stroke-width="0.3"/>
    <line x1="7.2" y1="29.5" x2="7.2" y2="29.5" stroke="black" stroke-width="0.3"/>
    <line x1="7.3" y1="28.0" x2="7.2" y2="28.0" stroke="black" stroke-width="0.3"/>
    <line x1="7.3" y1="29.5" x2="7.2" y2="29.5" stroke="black" stroke-width="0.3"/>
    <line x1="7.4" y1="7.1" x2="5.1" y2="5.7" stroke="black" stroke-width="0.3"/>
    <line x1="7.4" y1="45.0" x2="5.1" y2="43.6" stroke="black" stroke-width="0.3"/>
    <line x1="7.4" y1="7.1" x2="5.0" y2="5.8" stroke="black" stroke-width="0.3"/>
    <line x1="7.4" y1="45.0" x2="5.0" y2="43.6" stroke="black" stroke-width="0.3"/>
    <line x1="7.3" y1="28.0" x2="5.1" y2="26.7" stroke="black" stroke-width="0.3"/>
    <line x1="7.3" y1="29.5" x2="5.1" y2="28.2" stroke="black" stroke-width="0.3"/>
    <line x1="7.2" y1="28.0" x2="5.0" y2="26.8" stroke="black" stroke-width="0.3"/>
    <line x1="7.2" y1="29.5" x2="5.0" y2="28.3" stroke="black" stroke-width="0.3"/>
    <line x1="5.0" y1="5.8" x2="5.1" y2="5.7" stroke="black" stroke-width="0.3"/>
    <line x1="5.0" y1="5.8" x2="5.0" y2="26.8" stroke="black" stroke-width="0.3"/>
    <line x1="5.0" y1="26.8" x2="5.1" y2="26.7" stroke="black" stroke-width="0.3"/>
    <line x1="5.0" y1="28.3" x2="5.1" y2="28.2" stroke="black" stroke-width="0.3"/>
    <line x1="5.0" y1="28.3" x2="5.0" y2="40.2" stroke="black" stroke-width="0.3"/>
    <line x1="5.0" y1="40.2" x2="5.1" y2="40.1" stroke="black" stroke-width="0.3"/>
    <line x1="5.1" y1="28.2" x2="5.1" y2="40.1" stroke="black" stroke-width="0.3"/>
    <line x1="5.1" y1="5.7" x2="5.1" y2="26.7" stroke="black" stroke-width="0.3"/>
    <line x1="5.1" y1="43.6" x2="5.1" y2="40.1" stroke="black" stroke-width="0.3"/>
    <line x1="5.0" y1="43.6" x2="5.0" y2="40.2" stroke="black" stroke-width="0.3"/>
    <line x1="5.0" y1="43.6" x2="5.1" y2="43.6" stroke="black" stroke-width="0.3"/>
    <line x1="5.1" y1="5.7" x2="5.1" y2="5.7" stroke="black" stroke-width="0.3"/>
    <line x1="5.1" y1="26.7" x2="5.1" y2="26.7" stroke="black" stroke-width="0.3"/>
    <line x1="5.1" y1="28.2" x2="5.1" y2="28.2" stroke="black" stroke-width="0.3"/>
    <line x1="5.1" y1="40.1" x2="5.1" y2="40.1" stroke="black" stroke-width="0.3"/>
    <line x1="5.0" y1="5.8" x2="5.0" y2="5.7" stroke="black" stroke-width="0.3"/>
    <line x1="5.0" y1="40.2" x2="5.0" y2="40.2" stroke="black" stroke-width="0.3"/>
    <line x1="5.0" y1="26.7" x2="5.0" y2="26.8" stroke="black" stroke-width="0.3"/>
    <line x1="5.0" y1="28.3" x2="5.0" y2="28.3" stroke="black" stroke-width="0.3"/>
    <line x1="5.1" y1="5.7" x2="5.1" y2="5.7" stroke="black" stroke-width="0.3"/>
    <line x1="5.1" y1="26.7" x2="5.1" y2="26.7" stroke="black" stroke-width="0.3"/>
    <line x1="5.1" y1="28.2" x2="5.1" y2="28.2" stroke="black" stroke-width="0.3"/>
    <line x1="5.1" y1="40.1" x2="5.1" y2="40.1" stroke="black" stroke-width="0.3"/>
    <line x1="5.1" y1="5.7" x2="5.1" y2="5.7" stroke="black" stroke-width="0.3"/>
    <line x1="5.1" y1="26.7" x2="5.1" y2="26.7" stroke="black" stroke-width="0.3"/>
    <line x1="5.1" y1="28.2" x2="5.1" y2="28.2" stroke="black" stroke-width="0.3"/>
    <line x1="5.1" y1="40.1" x2="5.1" y2="40.1" stroke="black" stroke-width="0.3"/>
    <line x1="5.0" y1="5.7" x2="5.0" y2="5.7" stroke="black" stroke-width="0.3"/>
    <line x1="5.0" y1="26.7" x2="5.0" y2="26.7" stroke="black" stroke-width="0.3"/>
    <line x1="5.0" y1="28.2" x2="5.0" y2="28.3" stroke="black" stroke-width="0.3"/>
    <line x1="5.0" y1="40.2" x2="5.0" y2="40.2" stroke="black" stroke-width="0.3"/>
    <line x1="5.1" y1="5.7" x2="5.1" y2="5.7" stroke="black" stroke-width="0.3"/>
    <line x1="5.1" y1="26.7" x2="5.1" y2="26.7" stroke="black" stroke-width="0.3"/>
    <line x1="5.1" y1="28.2" x2="5.1" y2="28.2" stroke="black" stroke-width="0.3"/>
    <line x1="5.1" y1="40.1" x2="5.1" y2="40.1" stroke="black" stroke-width="0.3"/>
    <line x1="5.1" y1="5.7" x2="5.1" y2="5.7" stroke="black" stroke-width="0.3"/>
    <line x1="5.1" y1="26.7" x2="5.1" y2="26.7" stroke="black" stroke-width="0.3"/>
    <line x1="5.1" y1="28.2" x2="5.1" y2="28.2" stroke="black" stroke-width="0.3"/>
    <line x1="5.1" y1="40.1" x2="5.1" y2="40.1" stroke="black" stroke-width="0.3"/>
    <line x1="5.0" y1="5.7" x2="5.0" y2="5.7" stroke="black" stroke-width="0.3"/>
    <line x1="5.0" y1="40.2" x2="5.0" y2="40.2" stroke="black" stroke-width="0.3"/>
    <line x1="5.0" y1="26.7" x2="5.0" y2="26.7" stroke="black" stroke-width="0.3"/>
    <line x1="5.0" y1="28.2" x2="5.0" y2="28.2" stroke="black" stroke-width="0.3"/>
    <line x1="5.1" y1="5.7" x2="5.1" y2="5.7" stroke="black" stroke-width="0.3"/>
    <line x1="5.1" y1="26.7" x2="5.1" y2="26.7" stroke="black" stroke-width="0.3"/>
    <line x1="5.1" y1="28.2" x2="5.1" y2="28.2" stroke="black" stroke-width="0.3"/>
    <line x1="5.1" y1="40.1" x2="5.1" y2="40.1" stroke="black" stroke-width="0.3"/>
    <line x1="5.1" y1="5.7" x2="5.1" y2="5.7" stroke="black" stroke-width="0.3"/>
    <line x1="5.1" y1="26.7" x2="5.1" y2="26.7" stroke="black" stroke-width="0.3"/>
    <line x1="5.1" y1="28.2" x2="5.1" y2="28.2" stroke="black" stroke-width="0.3"/>
    <line x1="5.1" y1="40.1" x2="5.1" y2="40.1" stroke="black" stroke-width="0.3"/>
    <line x1="5.1" y1="5.7" x2="5.1" y2="5.7" stroke="black" stroke-width="0.3"/>
    <line x1="5.1" y1="26.7" x2="5.1" y2="26.7" stroke="black" stroke-width="0.3"/>
    <line x1="5.1" y1="28.2" x2="5.1" y2="28.2" stroke="black" stroke-width="0.3"/>
    <line x1="5.1" y1="40.1" x2="5.1" y2="40.1" stroke="black" stroke-width="0.3"/>
    <line x1="5.0" y1="5.7" x2="5.0" y2="5.7" stroke="black" stroke-width="0.3"/>
    <line x1="5.0" y1="40.2" x2="5.0" y2="40.1" stroke="black" stroke-width="0.3"/>
    <line x1="5.0" y1="26.7" x2="5.0" y2="26.7" stroke="black" stroke-width="0.3"/>
    <line x1="5.0" y1="28.2" x2="5.0" y2="28.2" stroke="black" stroke-width="0.3"/>
    <line x1="5.1" y1="5.7" x2="5.1" y2="5.7" stroke="black" stroke-width="0.3"/>
    <line x1="5.1" y1="26.7" x2="5.1" y2="26.7" stroke="black" stroke-width="0.3"/>
    <line x1="5.1" y1="28.2" x2="5.1" y2="28.2" stroke="black" stroke-width="0.3"/>
    <line x1="5.1" y1="40.1" x2="5.1" y2="40.1" stroke="black" stroke-width="0.3"/>
    <line x1="5.1" y1="5.7" x2="5.1" y2="5.7" stroke="black" stroke-width="0.3"/>
    <line x1="5.1" y1="26.7" x2="5.1" y2="26.7" stroke="black" stroke-width="0.3"/>
    <line x1="5.1" y1="28.2" x2="5.1" y2="28.2" stroke="black" stroke-width="0.3"/>
    <line x1="5.1" y1="40.1" x2="5.1" y2="40.1" stroke="black" stroke-width="0.3"/>
    <line x1="5.1" y1="5.7" x2="5.1" y2="5.7" stroke="black" stroke-width="0.3"/>
    <line x1="5.1" y1="26.7" x2="5.1" y2="26.7" stroke="black" stroke-width="0.3"/>
    <line x1="5.1" y1="28.2" x2="5.1" y2="28.2" stroke="black" stroke-width="0.3"/>
    <line x1="5.1" y1="40.1" x2="5.1" y2="40.1" stroke="black" stroke-width="0.3"/>
    <line x1="5.1" y1="5.7" x2="5.1" y2="5.7" stroke="black" stroke-width="0.3"/>
    <line x1="5.1" y1="26.7" x2="5.1" y2="26.7" stroke="black" stroke-width="0.3"/>
    <line x1="5.1" y1="28.2" x2="5.1" y2="28.2" stroke="black" stroke-width="0.3"/>
    <line x1="5.1" y1="40.1" x2="5.1" y2="40.1" stroke="black" stroke-width="0.3"/>
    <line x1="5.1" y1="40.1" x2="6.2" y2="39.5" stroke="black" stroke-width="0.3"/>
    <line x1="6.2" y1="39.5" x2="6.2" y2="5.0" stroke="black" stroke-width="0.3"/>
    <line x1="5.1" y1="5.7" x2="6.2" y2="5.0" stroke="black" stroke-width="0.3"/>
    <line x1="5.1" y1="26.7" x2="5.2" y2="26.6" stroke="black" stroke-width="0.3"/>
    <line x1="5.2" y1="26.6" x2="5.2" y2="28.1" stroke="black" stroke-width="0.3"/>
    <line x1="5.1" y1="28.2" x2="5.2" y2="28.1" stroke="black" stroke-width="0.3"/>
    <line x1="5.1" y1="28.2" x2="5.1" y2="40.1" stroke="black" stroke-width="0.3"/>
    <line x1="5.1" y1="5.7" x2="5.1" y2="26.7" stroke="black" stroke-width="0.3"/>
    <line x1="5.0" y1="5.7" x2="5.0" y2="5.7" stroke="black" stroke-width="0.3"/>
    <line x1="5.0" y1="40.1" x2="5.0" y2="40.1" stroke="black" stroke-width="0.3"/>
    <line x1="5.0" y1="26.7" x2="5.0" y2="26.7" stroke="black" stroke-width="0.3"/>
    <line x1="5.0" y1="28.2" x2="5.0" y2="28.2" stroke="black" stroke-width="0.3"/>
    <line x1="5.0" y1="5.7" x2="5.0" y2="5.7" stroke="black" stroke-width="0.3"/>
    <line x1="5.0" y1="40.1" x2="5.0" y2="40.1" stroke="black" stroke-width="0.3"/>
    <line x1="5.0" y1="26.7" x2="5.0" y2="26.7" stroke="black" stroke-width="0.3"/>
    <line x1="5.0" y1="28.2" x2="5.0" y2="28.2" stroke="black" stroke-width="0.3"/>
    <line x1="6.1" y1="39.4" x2="6.2" y2="39.5" stroke="black" stroke-width="0.3"/>
    <line x1="5.0" y1="40.1" x2="5.1" y2="40.1" stroke="black" stroke-width="0.3"/>
    <line x1="6.1" y1="5.0" x2="6.2" y2="5.0" stroke="black" stroke-width="0.3"/>
    <line x1="5.0" y1="5.6" x2="5.1" y2="5.7" stroke="black" stroke-width="0.3"/>
    <line x1="5.0" y1="26.6" x2="5.1" y2="26.7" stroke="black" stroke-width="0.3"/>
    <line x1="5.1" y1="26.6" x2="5.2" y2="26.6" stroke="black" stroke-width="0.3"/>
    <line x1="5.1" y1="28.1" x2="5.2" y2="28.1" stroke="black" stroke-width="0.3"/>
    <line x1="5.0" y1="28.1" x2="5.1" y2="28.2" stroke="black" stroke-width="0.3"/>
    <line x1="5.0" y1="5.7" x2="5.0" y2="5.7" stroke="black" stroke-width="0.3"/>
    <line x1="5.0" y1="40.1" x2="5.0" y2="40.1" stroke="black" stroke-width="0.3"/>
    <line x1="5.0" y1="26.7" x2="5.0" y2="26.7" stroke="black" stroke-width="0.3"/>
    <line x1="5.0" y1="28.2" x2="5.0" y2="28.2" stroke="black" stroke-width="0.3"/>
    <line x1="5.0" y1="5.7" x2="5.0" y2="5.7" stroke="black" stroke-width="0.3"/>
    <line x1="5.0" y1="40.1" x2="5.0" y2="40.1" stroke="black" stroke-width="0.3"/>
    <line x1="5.0" y1="26.7" x2="5.0" y2="26.7" stroke="black" stroke-width="0.3"/>
    <line x1="5.0" y1="28.2" x2="5.0" y2="28.2" stroke="black" stroke-width="0.3"/>
    <line x1="5.0" y1="5.7" x2="5.0" y2="5.7" stroke="black" stroke-width="0.3"/>
    <line x1="5.0" y1="40.1" x2="5.0" y2="40.1" stroke="black" stroke-width="0.3"/>
    <line x1="5.0" y1="26.7" x2="5.0" y2="26.7" stroke="black" stroke-width="0.3"/>
    <line x1="5.0" y1="28.2" x2="5.0" y2="28.2" stroke="black" stroke-width="0.3"/>
    <line x1="5.0" y1="5.7" x2="5.0" y2="5.7" stroke="black" stroke-width="0.3"/>
    <line x1="5.0" y1="26.7" x2="5.0" y2="26.7" stroke="black" stroke-width="0.3"/>
    <line x1="5.0" y1="28.2" x2="5.0" y2="28.2" stroke="black" stroke-width="0.3"/>
    <line x1="5.0" y1="40.1" x2="5.0" y2="40.1" stroke="black" stroke-width="0.3"/>
    <line x1="5.0" y1="5.7" x2="5.0" y2="5.6" stroke="black" stroke-width="0.3"/>
    <line x1="5.0" y1="26.6" x2="5.0" y2="26.7" stroke="black" stroke-width="0.3"/>
    <line x1="5.0" y1="28.2" x2="5.0" y2="28.2" stroke="black" stroke-width="0.3"/>
    <line x1="5.0" y1="40.1" x2="5.0" y2="40.1" stroke="black" stroke-width="0.3"/>
    <line x1="5.0" y1="5.6" x2="5.0" y2="5.6" stroke="black" stroke-width="0.3"/>
    <line x1="5.0" y1="26.6" x2="5.0" y2="26.6" stroke="black" stroke-width="0.3"/>
    <line x1="5.0" y1="28.1" x2="5.0" y2="28.2" stroke="black" stroke-width="0.3"/>
    <line x1="5.0" y1="40.1" x2="5.0" y2="40.1" stroke="black" stroke-width="0.3"/>
    <line x1="5.0" y1="40.1" x2="6.1" y2="39.4" stroke="black" stroke-width="0.3"/>
    <line x1="5.0" y1="28.1" x2="5.0" y2="40.1" stroke="black" stroke-width="0.3"/>
    <line x1="5.0" y1="28.1" x2="5.1" y2="28.1" stroke="black" stroke-width="0.3"/>
    <line x1="5.1" y1="26.6" x2="5.1" y2="28.1" stroke="black" stroke-width="0.3"/>
    <line x1="5.0" y1="26.6" x2="5.1" y2="26.6" stroke="black" stroke-width="0.3"/>
    <line x1="5.0" y1="5.6" x2="5.0" y2="26.6" stroke="black" stroke-width="0.3"/>
    <line x1="5.0" y1="5.6" x2="6.1" y2="5.0" stroke="black" stroke-width="0.3"/>
    <line x1="6.1" y1="39.4" x2="6.1" y2="5.0" stroke="black" stroke-width="0.3"/>
  </g>
  </g>
  <g id="drawing_group" transform="translate(-6.00, -24.41)">
  <g stroke="black" stroke-width="0.5" fill="none">
    <line x1="64.19" y1="116.47" x2="64.19" y2="125.44"/>
    <line x1="64.19" y1="116.47" x2="114.56" y2="116.47"/>
    <path d="M 114.56,116.47 A 0.63,0.63 0 0,1 115.19,117.09"/>
    <line x1="115.19" y1="117.09" x2="115.19" y2="126.03"/>
    <line x1="120.19" y1="126.03" x2="115.19" y2="126.03"/>
    <line x1="120.19" y1="117.09" x2="120.19" y2="126.03"/>
    <path d="M 120.19,117.09 A 0.63,0.63 0 0,1 120.81,116.47"/>
    <line x1="120.81" y1="116.47" x2="189.81" y2="116.47"/>
    <line x1="189.81" y1="116.47" x2="189.81" y2="130.03"/>
    <line x1="75.69" y1="130.03" x2="189.81" y2="130.03"/>
    <line x1="75.69" y1="125.44" x2="75.69" y2="130.03"/>
    <line x1="64.19" y1="125.44" x2="75.69" y2="125.44"/>
  </g>
  <g stroke="red" stroke-width="0.35" stroke-dasharray="2,2" fill="none">
    <line x1="115.19" y1="125.63" x2="75.69" y2="125.63"/>
    <line x1="189.81" y1="125.63" x2="120.19" y2="125.63"/>
  </g>
  <g>
    <line x1="95.44" y1="125.63" x2="95.44" y2="116.47" stroke="blue" stroke-width="0.3"/>
    <polygon points="95.44,125.63 96.57,123.74 94.31,123.74" fill="blue"/>
    <polygon points="95.44,116.47 96.57,118.35 94.31,118.35" fill="blue"/>
    <text x="95.44" y="105.53" text-anchor="middle" font-size="5" fill="blue">2.885"</text>
    <text x="95.44" y="112.53" text-anchor="middle" font-size="5" fill="blue">2-7/8"</text>
  </g>
  <g>
    <line x1="155.00" y1="125.63" x2="155.00" y2="130.03" stroke="blue" stroke-width="0.3"/>
    <polygon points="155.00,125.63 153.87,127.51 156.13,127.51" fill="blue"/>
    <polygon points="155.00,130.03 153.87,128.15 156.13,128.15" fill="blue"/>
    <text x="155.00" y="136.97" text-anchor="middle" font-size="5" fill="blue">1.389"</text>
    <text x="155.00" y="143.97" text-anchor="middle" font-size="5" fill="blue">1-3/8"</text>
  </g>
  <g stroke="#999" stroke-width="0.3" stroke-dasharray="2,2" fill="none">
    <rect x="64.19" y="116.47" width="125.63" height="13.57"/>
  </g>
  <g stroke="#666" stroke-width="0.3" fill="none">
    <line x1="64.19" y1="170.50" x2="189.81" y2="170.50"/>
    <line x1="64.19" y1="130.03" x2="64.19" y2="170.50" stroke="#666" stroke-width="0.3" stroke-dasharray="2,2"/>
    <line x1="189.81" y1="130.03" x2="189.81" y2="170.50" stroke="#666" stroke-width="0.3" stroke-dasharray="2,2"/>
    <polygon points="64.19,170.50 67.19,169.00 67.19,172.00" fill="#666"/>
    <polygon points="189.81,170.50 186.81,169.00 186.81,172.00" fill="#666"/>
    <text x="127.00" y="175.50" text-anchor="middle" font-size="5" fill="#666">39.567"</text>
    <text x="127.00" y="180.50" text-anchor="middle" font-size="5" fill="#666">39-9/16"</text>
    <line x1="197.81" y1="116.47" x2="197.81" y2="130.03"/>
    <line x1="189.81" y1="116.47" x2="197.81" y2="116.47" stroke="#666" stroke-width="0.3" stroke-dasharray="2,2"/>
    <line x1="189.81" y1="130.03" x2="197.81" y2="130.03" stroke="#666" stroke-width="0.3" stroke-dasharray="2,2"/>
    <polygon points="197.81,116.47 196.31,119.47 199.31,119.47" fill="#666"/>
    <polygon points="197.81,130.03 196.31,127.03 199.31,127.03" fill="#666"/>
    <text x="202.81" y="123.25" text-anchor="middle" font-size="5" fill="#666" transform="rotate(-90 202.81 123.25)">4.274"</text>
    <text x="208.81" y="123.25" text-anchor="middle" font-size="5" fill="#666" transform="rotate(-90 208.81 123.25)">4-1/4"</text>
  </g>
  </g>
</svg>