<?xml version="1.0" encoding="UTF-8"?>
<svg width="253.99999999999997mm" height="190.5mm" viewBox="0 0 253.99999999999997 190.5" xmlns="http://www.w3.org/2000/svg">
  <rect x="0" y="0" width="253.99999999999997" height="190.5" stroke="black" stroke-width="0.5" fill="none"/>
  <text x="126.99999999999999" y="10" text-anchor="middle" font-size="6" font-weight="bold">Flat Pattern - xxp00901.stp</text>
  <text x="126.99999999999999" y="16" text-anchor="middle" font-size="4">Scale: 0.500:1</text>
  <text x="126.99999999999999" y="22" text-anchor="middle" font-size="5" fill="#666">K-Factor: 0.35</text>
  <text x="126.99999999999999" y="28" text-anchor="middle" font-size="5" fill="#666">Thickness: 0.0630" (~16ga)</text>
  <g transform="translate(201.99999999999997, 2)">
  <g id="bent_preview">
    <rect x="0" y="0" width="50" height="50" fill="white" stroke="black" stroke-width="0.5"/>
    <text x="25.0" y="8" text-anchor="middle" font-size="4" font-weight="bold">Bent State</text>
    <line x1="29.2" y1="43.2" x2="26.7" y2="44.6" stroke="black" stroke-width="0.3"/>
    <line x1="26.7" y1="44.8" x2="26.7" y2="44.6" stroke="black" stroke-width="0.3"/>
    <line x1="29.2" y1="43.2" x2="29.2" y2="43.1" stroke="black" stroke-width="0.3"/>
    <line x1="29.2" y1="43.1" x2="29.3" y2="43.1" stroke="black" stroke-width="0.3"/>
    <line x1="29.3" y1="43.1" x2="29.3" y2="43.1" stroke="black" stroke-width="0.3"/>
    <line x1="29.3" y1="43.1" x2="29.3" y2="43.1" stroke="black" stroke-width="0.3"/>
    <line x1="29.3" y1="43.1" x2="29.3" y2="43.0" stroke="black" stroke-width="0.3"/>
    <line x1="29.3" y1="43.0" x2="29.4" y2="43.0" stroke="black" stroke-width="0.3"/>
    <line x1="29.4" y1="43.0" x2="29.4" y2="43.0" stroke="black" stroke-width="0.3"/>
    <line x1="29.4" y1="43.0" x2="29.4" y2="42.9" stroke="black" stroke-width="0.3"/>
    <line x1="29.4" y1="42.9" x2="29.4" y2="42.9" stroke="black" stroke-width="0.3"/>
    <line x1="29.4" y1="42.9" x2="29.4" y2="42.9" stroke="black" stroke-width="0.3"/>
    <line x1="29.4" y1="42.9" x2="29.4" y2="42.8" stroke="black" stroke-width="0.3"/>
    <line x1="29.4" y1="42.8" x2="29.4" y2="42.8" stroke="black" stroke-width="0.3"/>
    <line x1="29.2" y1="43.2" x2="29.2" y2="43.4" stroke="black" stroke-width="0.3"/>
    <line x1="29.2" y1="43.4" x2="29.3" y2="43.4" stroke="black" stroke-width="0.3"/>
    <line x1="29.3" y1="43.4" x2="29.3" y2="43.3" stroke="black" stroke-width="0.3"/>
    <line x1="29.3" y1="43.3" x2="29.4" y2="43.3" stroke="black" stroke-width="0.3"/>
    <line x1="29.4" y1="43.3" x2="29.4" y2="43.2" stroke="black" stroke-width="0.3"/>
    <line x1="29.4" y1="43.2" x2="29.5" y2="43.2" stroke="black" stroke-width="0.3"/>
    <line x1="29.5" y1="43.2" x2="29.5" y2="43.1" stroke="black" stroke-width="0.3"/>
    <line x1="29.5" y1="43.1" x2="29.5" y2="43.0" stroke="black" stroke-width="0.3"/>
    <line x1="29.5" y1="43.0" x2="29.6" y2="43.0" stroke="black" stroke-width="0.3"/>
    <line x1="29.6" y1="43.0" x2="29.6" y2="42.9" stroke="black" stroke-width="0.3"/>
    <line x1="29.6" y1="42.9" x2="29.6" y2="42.8" stroke="black" stroke-width="0.3"/>
    <line x1="29.6" y1="42.8" x2="29.6" y2="42.8" stroke="black" stroke-width="0.3"/>
    <line x1="29.6" y1="42.8" x2="29.6" y2="42.7" stroke="black" stroke-width="0.3"/>
    <line x1="29.4" y1="42.8" x2="29.6" y2="42.7" stroke="black" stroke-width="0.3"/>
    <line x1="29.2" y1="43.4" x2="26.7" y2="44.8" stroke="black" stroke-width="0.3"/>
    <line x1="29.6" y1="36.4" x2="29.6" y2="42.7" stroke="black" stroke-width="0.3"/>
    <line x1="29.6" y1="36.4" x2="29.6" y2="36.3" stroke="black" stroke-width="0.3"/>
    <line x1="29.6" y1="36.3" x2="29.6" y2="36.3" stroke="black" stroke-width="0.3"/>
    <line x1="29.6" y1="36.3" x2="29.6" y2="36.3" stroke="black" stroke-width="0.3"/>
    <line x1="29.6" y1="36.3" x2="29.6" y2="36.2" stroke="black" stroke-width="0.3"/>
    <line x1="29.6" y1="36.2" x2="29.7" y2="36.2" stroke="black" stroke-width="0.3"/>
    <line x1="29.7" y1="36.2" x2="29.7" y2="36.2" stroke="black" stroke-width="0.3"/>
    <line x1="29.7" y1="36.2" x2="29.7" y2="36.1" stroke="black" stroke-width="0.3"/>
    <line x1="29.7" y1="36.1" x2="29.7" y2="36.1" stroke="black" stroke-width="0.3"/>
    <line x1="29.7" y1="36.1" x2="29.7" y2="36.1" stroke="black" stroke-width="0.3"/>
    <line x1="29.7" y1="36.1" x2="29.8" y2="36.0" stroke="black" stroke-width="0.3"/>
    <line x1="29.8" y1="36.0" x2="29.8" y2="36.0" stroke="black" stroke-width="0.3"/>
    <line x1="29.8" y1="36.0" x2="29.8" y2="36.0" stroke="black" stroke-width="0.3"/>
    <line x1="41.6" y1="29.2" x2="29.8" y2="36.0" stroke="black" stroke-width="0.3"/>
    <line x1="41.6" y1="29.0" x2="41.7" y2="28.9" stroke="black" stroke-width="0.3"/>
    <line x1="41.7" y1="28.9" x2="41.7" y2="28.9" stroke="black" stroke-width="0.3"/>
    <line x1="41.7" y1="28.9" x2="41.8" y2="28.9" stroke="black" stroke-width="0.3"/>
    <line x1="41.8" y1="28.9" x2="41.8" y2="28.9" stroke="black" stroke-width="0.3"/>
    <line x1="41.8" y1="28.9" x2="41.9" y2="28.9" stroke="black" stroke-width="0.3"/>
    <line x1="41.9" y1="28.9" x2="41.9" y2="28.9" stroke="black" stroke-width="0.3"/>
    <line x1="41.9" y1="28.9" x2="41.9" y2="29.0" stroke="black" stroke-width="0.3"/>
    <line x1="41.9" y1="29.0" x2="42.0" y2="29.0" stroke="black" stroke-width="0.3"/>
    <line x1="42.0" y1="29.0" x2="42.0" y2="29.0" stroke="black" stroke-width="0.3"/>
    <line x1="42.0" y1="29.0" x2="42.0" y2="29.1" stroke="black" stroke-width="0.3"/>
    <line x1="42.0" y1="29.1" x2="42.0" y2="29.1" stroke="black" stroke-width="0.3"/>
    <line x1="42.0" y1="29.1" x2="42.0" y2="29.2" stroke="black" stroke-width="0.3"/>
    <line x1="42.0" y1="35.5" x2="42.0" y2="29.2" stroke="black" stroke-width="0.3"/>
    <line x1="42.0" y1="29.2" x2="41.8" y2="29.3" stroke="black" stroke-width="0.3"/>
    <line x1="41.8" y1="35.7" x2="41.8" y2="29.3" stroke="black" stroke-width="0.3"/>
    <line x1="42.0" y1="35.5" x2="41.8" y2="35.7" stroke="black" stroke-width="0.3"/>
    <line x1="41.6" y1="29.0" x2="41.6" y2="29.2" stroke="black" stroke-width="0.3"/>
    <line x1="41.6" y1="29.2" x2="41.6" y2="29.2" stroke="black" stroke-width="0.3"/>
    <line x1="41.6" y1="29.2" x2="41.7" y2="29.2" stroke="black" stroke-width="0.3"/>
    <line x1="41.7" y1="29.2" x2="41.7" y2="29.2" stroke="black" stroke-width="0.3"/>
    <line x1="41.7" y1="29.2" x2="41.7" y2="29.2" stroke="black" stroke-width="0.3"/>
    <line x1="41.7" y1="29.2" x2="41.7" y2="29.2" stroke="black" stroke-width="0.3"/>
    <line x1="41.7" y1="29.2" x2="41.8" y2="29.2" stroke="black" stroke-width="0.3"/>
    <line x1="41.8" y1="29.2" x2="41.8" y2="29.2" stroke="black" stroke-width="0.3"/>
    <line x1="41.8" y1="29.2" x2="41.8" y2="29.2" stroke="black" stroke-width="0.3"/>
    <line x1="41.8" y1="29.2" x2="41.8" y2="29.2" stroke="black" stroke-width="0.3"/>
    <line x1="41.8" y1="29.2" x2="41.8" y2="29.2" stroke="black" stroke-width="0.3"/>
    <line x1="41.8" y1="29.2" x2="41.8" y2="29.3" stroke="black" stroke-width="0.3"/>
    <line x1="41.8" y1="29.3" x2="41.8" y2="29.3" stroke="black" stroke-width="0.3"/>
    <line x1="29.8" y1="35.8" x2="29.8" y2="36.0" stroke="black" stroke-width="0.3"/>
    <line x1="41.6" y1="29.0" x2="29.8" y2="35.8" stroke="black" stroke-width="0.3"/>
    <line x1="29.4" y1="36.5" x2="29.4" y2="36.4" stroke="black" stroke-width="0.3"/>
    <line x1="29.4" y1="36.4" x2="29.4" y2="36.3" stroke="black" stroke-width="0.3"/>
    <line x1="29.4" y1="36.3" x2="29.4" y2="36.3" stroke="black" stroke-width="0.3"/>
    <line x1="29.4" y1="36.3" x2="29.5" y2="36.2" stroke="black" stroke-width="0.3"/>
    <line x1="29.5" y1="36.2" x2="29.5" y2="36.1" stroke="black" stroke-width="0.3"/>
    <line x1="29.5" y1="36.1" x2="29.5" y2="36.1" stroke="black" stroke-width="0.3"/>
    <line x1="29.5" y1="36.1" x2="29.6" y2="36.0" stroke="black" stroke-width="0.3"/>
    <line x1="29.6" y1="36.0" x2="29.6" y2="35.9" stroke="black" stroke-width="0.3"/>
    <line x1="29.6" y1="35.9" x2="29.7" y2="35.9" stroke="black" stroke-width="0.3"/>
    <line x1="29.7" y1="35.9" x2="29.7" y2="35.8" stroke="black" stroke-width="0.3"/>
    <line x1="29.7" y1="35.8" x2="29.8" y2="35.8" stroke="black" stroke-width="0.3"/>
    <line x1="29.8" y1="35.8" x2="29.8" y2="35.8" stroke="black" stroke-width="0.3"/>
    <line x1="29.4" y1="36.5" x2="29.6" y2="36.4" stroke="black" stroke-width="0.3"/>
    <line x1="29.4" y1="36.5" x2="29.4" y2="42.8" stroke="black" stroke-width="0.3"/>
    <line x1="42.0" y1="35.5" x2="42.0" y2="35.6" stroke="black" stroke-width="0.3"/>
    <line x1="42.0" y1="35.6" x2="42.0" y2="35.6" stroke="black" stroke-width="0.3"/>
    <line x1="42.0" y1="35.6" x2="42.0" y2="35.6" stroke="black" stroke-width="0.3"/>
    <line x1="42.0" y1="35.6" x2="42.1" y2="35.6" stroke="black" stroke-width="0.3"/>
    <line x1="42.1" y1="35.6" x2="42.1" y2="35.7" stroke="black" stroke-width="0.3"/>
    <line x1="42.1" y1="35.7" x2="42.1" y2="35.7" stroke="black" stroke-width="0.3"/>
    <line x1="42.1" y1="35.7" x2="42.1" y2="35.7" stroke="black" stroke-width="0.3"/>
    <line x1="42.1" y1="35.7" x2="42.1" y2="35.7" stroke="black" stroke-width="0.3"/>
    <line x1="42.1" y1="35.7" x2="42.2" y2="35.7" stroke="black" stroke-width="0.3"/>
    <line x1="42.2" y1="35.7" x2="42.2" y2="35.7" stroke="black" stroke-width="0.3"/>
    <line x1="42.2" y1="35.7" x2="42.2" y2="35.7" stroke="black" stroke-width="0.3"/>
    <line x1="42.2" y1="35.7" x2="42.2" y2="35.7" stroke="black" stroke-width="0.3"/>
    <line x1="41.8" y1="35.7" x2="41.8" y2="35.7" stroke="black" stroke-width="0.3"/>
    <line x1="41.8" y1="35.7" x2="41.8" y2="35.8" stroke="black" stroke-width="0.3"/>
    <line x1="41.8" y1="35.8" x2="41.9" y2="35.8" stroke="black" stroke-width="0.3"/>
    <line x1="41.9" y1="35.8" x2="41.9" y2="35.9" stroke="black" stroke-width="0.3"/>
    <line x1="41.9" y1="35.9" x2="41.9" y2="35.9" stroke="black" stroke-width="0.3"/>
    <line x1="41.9" y1="35.9" x2="41.9" y2="35.9" stroke="black" stroke-width="0.3"/>
    <line x1="41.9" y1="35.9" x2="42.0" y2="35.9" stroke="black" stroke-width="0.3"/>
    <line x1="42.0" y1="35.9" x2="42.0" y2="35.9" stroke="black" stroke-width="0.3"/>
    <line x1="42.0" y1="35.9" x2="42.1" y2="35.9" stroke="black" stroke-width="0.3"/>
    <line x1="42.1" y1="35.9" x2="42.1" y2="35.9" stroke="black" stroke-width="0.3"/>
    <line x1="42.1" y1="35.9" x2="42.2" y2="35.9" stroke="black" stroke-width="0.3"/>
    <line x1="42.2" y1="35.9" x2="42.2" y2="35.9" stroke="black" stroke-width="0.3"/>
    <line x1="42.2" y1="35.7" x2="42.2" y2="35.9" stroke="black" stroke-width="0.3"/>
    <line x1="44.7" y1="34.4" x2="42.2" y2="35.9" stroke="black" stroke-width="0.3"/>
    <line x1="44.7" y1="34.2" x2="42.2" y2="35.7" stroke="black" stroke-width="0.3"/>
    <line x1="44.7" y1="34.4" x2="44.7" y2="34.2" stroke="black" stroke-width="0.3"/>
    <line x1="26.7" y1="44.6" x2="26.6" y2="44.7" stroke="black" stroke-width="0.3"/>
    <line x1="26.6" y1="44.9" x2="26.7" y2="44.8" stroke="black" stroke-width="0.3"/>
    <line x1="44.7" y1="34.4" x2="44.8" y2="34.4" stroke="black" stroke-width="0.3"/>
    <line x1="44.8" y1="34.2" x2="44.7" y2="34.2" stroke="black" stroke-width="0.3"/>
    <line x1="26.6" y1="44.7" x2="26.5" y2="44.7" stroke="black" stroke-width="0.3"/>
    <line x1="26.5" y1="44.9" x2="26.6" y2="44.9" stroke="black" stroke-width="0.3"/>
    <line x1="44.8" y1="34.4" x2="44.9" y2="34.3" stroke="black" stroke-width="0.3"/>
    <line x1="44.9" y1="34.1" x2="44.8" y2="34.2" stroke="black" stroke-width="0.3"/>
    <line x1="26.5" y1="44.7" x2="26.4" y2="44.7" stroke="black" stroke-width="0.3"/>
    <line x1="26.4" y1="45.0" x2="26.5" y2="44.9" stroke="black" stroke-width="0.3"/>
    <line x1="44.9" y1="34.3" x2="44.9" y2="34.3" stroke="black" stroke-width="0.3"/>
    <line x1="44.9" y1="34.0" x2="44.9" y2="34.1" stroke="black" stroke-width="0.3"/>
    <line x1="26.4" y1="44.7" x2="26.3" y2="44.7" stroke="black" stroke-width="0.3"/>
    <line x1="26.3" y1="45.0" x2="26.4" y2="45.0" stroke="black" stroke-width="0.3"/>
    <line x1="44.9" y1="34.3" x2="45.0" y2="34.2" stroke="black" stroke-width="0.3"/>
    <line x1="45.0" y1="34.0" x2="44.9" y2="34.0" stroke="black" stroke-width="0.3"/>
    <line x1="26.3" y1="44.7" x2="26.2" y2="44.8" stroke="black" stroke-width="0.3"/>
    <line x1="26.2" y1="45.0" x2="26.3" y2="45.0" stroke="black" stroke-width="0.3"/>
    <line x1="45.0" y1="34.2" x2="45.0" y2="34.1" stroke="black" stroke-width="0.3"/>
    <line x1="45.0" y1="33.9" x2="45.0" y2="34.0" stroke="black" stroke-width="0.3"/>
    <line x1="26.2" y1="44.8" x2="26.1" y2="44.8" stroke="black" stroke-width="0.3"/>
    <line x1="26.1" y1="45.0" x2="26.2" y2="45.0" stroke="black" stroke-width="0.3"/>
    <line x1="45.0" y1="34.1" x2="45.0" y2="34.1" stroke="black" stroke-width="0.3"/>
    <line x1="45.0" y1="33.8" x2="45.0" y2="33.9" stroke="black" stroke-width="0.3"/>
    <line x1="26.1" y1="44.8" x2="26.0" y2="44.8" stroke="black" stroke-width="0.3"/>
    <line x1="26.0" y1="45.0" x2="26.1" y2="45.0" stroke="black" stroke-width="0.3"/>
    <line x1="45.0" y1="34.1" x2="45.0" y2="34.0" stroke="black" stroke-width="0.3"/>
    <line x1="45.0" y1="33.8" x2="45.0" y2="33.8" stroke="black" stroke-width="0.3"/>
    <line x1="26.0" y1="44.8" x2="25.8" y2="44.7" stroke="black" stroke-width="0.3"/>
    <line x1="25.8" y1="45.0" x2="26.0" y2="45.0" stroke="black" stroke-width="0.3"/>
    <line x1="45.0" y1="34.0" x2="45.0" y2="33.9" stroke="black" stroke-width="0.3"/>
    <line x1="45.0" y1="33.7" x2="45.0" y2="33.8" stroke="black" stroke-width="0.3"/>
    <line x1="25.8" y1="44.7" x2="25.7" y2="44.7" stroke="black" stroke-width="0.3"/>
    <line x1="25.7" y1="45.0" x2="25.8" y2="45.0" stroke="black" stroke-width="0.3"/>
    <line x1="45.0" y1="33.9" x2="44.9" y2="33.9" stroke="black" stroke-width="0.3"/>
    <line x1="44.9" y1="33.6" x2="45.0" y2="33.7" stroke="black" stroke-width="0.3"/>
    <line x1="25.7" y1="44.7" x2="25.6" y2="44.7" stroke="black" stroke-width="0.3"/>
    <line x1="25.6" y1="44.9" x2="25.7" y2="45.0" stroke="black" stroke-width="0.3"/>
    <line x1="44.9" y1="33.9" x2="44.9" y2="33.8" stroke="black" stroke-width="0.3"/>
    <line x1="44.9" y1="33.6" x2="44.9" y2="33.6" stroke="black" stroke-width="0.3"/>
    <line x1="25.6" y1="44.7" x2="25.5" y2="44.7" stroke="black" stroke-width="0.3"/>
    <line x1="25.5" y1="44.9" x2="25.6" y2="44.9" stroke="black" stroke-width="0.3"/>
    <line x1="44.9" y1="33.8" x2="44.8" y2="33.8" stroke="black" stroke-width="0.3"/>
    <line x1="44.8" y1="33.5" x2="44.9" y2="33.6" stroke="black" stroke-width="0.3"/>
    <line x1="25.5" y1="44.7" x2="25.4" y2="44.6" stroke="black" stroke-width="0.3"/>
    <line x1="25.4" y1="44.8" x2="25.5" y2="44.9" stroke="black" stroke-width="0.3"/>
    <line x1="44.8" y1="33.8" x2="44.7" y2="33.7" stroke="black" stroke-width="0.3"/>
    <line x1="44.7" y1="33.5" x2="44.8" y2="33.5" stroke="black" stroke-width="0.3"/>
    <line x1="25.4" y1="44.8" x2="25.4" y2="44.6" stroke="black" stroke-width="0.3"/>
    <line x1="44.7" y1="33.7" x2="44.7" y2="33.5" stroke="black" stroke-width="0.3"/>
    <line x1="29.2" y1="43.2" x2="7.8" y2="30.8" stroke="black" stroke-width="0.3"/>
    <line x1="25.4" y1="44.6" x2="5.3" y2="33.0" stroke="black" stroke-width="0.3"/>
    <line x1="25.4" y1="44.8" x2="5.3" y2="33.2" stroke="black" stroke-width="0.3"/>
    <line x1="29.4" y1="42.8" x2="8.0" y2="30.4" stroke="black" stroke-width="0.3"/>
    <line x1="29.2" y1="43.4" x2="7.8" y2="31.0" stroke="black" stroke-width="0.3"/>
    <line x1="29.6" y1="42.7" x2="8.2" y2="30.3" stroke="black" stroke-width="0.3"/>
    <line x1="8.2" y1="24.0" x2="29.6" y2="36.4" stroke="black" stroke-width="0.3"/>
    <line x1="8.4" y1="23.6" x2="29.8" y2="36.0" stroke="black" stroke-width="0.3"/>
    <line x1="20.2" y1="16.8" x2="41.6" y2="29.2" stroke="black" stroke-width="0.3"/>
    <line x1="20.2" y1="16.6" x2="41.6" y2="29.0" stroke="black" stroke-width="0.3"/>
    <line x1="20.6" y1="16.8" x2="42.0" y2="29.2" stroke="black" stroke-width="0.3"/>
    <line x1="42.0" y1="35.5" x2="20.6" y2="23.2" stroke="black" stroke-width="0.3"/>
    <line x1="8.0" y1="24.1" x2="29.4" y2="36.5" stroke="black" stroke-width="0.3"/>
    <line x1="8.4" y1="23.4" x2="29.8" y2="35.8" stroke="black" stroke-width="0.3"/>
    <line x1="20.4" y1="16.9" x2="41.8" y2="29.3" stroke="black" stroke-width="0.3"/>
    <line x1="41.8" y1="35.7" x2="20.4" y2="23.3" stroke="black" stroke-width="0.3"/>
    <line x1="42.2" y1="35.7" x2="20.8" y2="23.3" stroke="black" stroke-width="0.3"/>
    <line x1="42.2" y1="35.9" x2="20.8" y2="23.5" stroke="black" stroke-width="0.3"/>
    <line x1="44.7" y1="33.7" x2="24.6" y2="22.1" stroke="black" stroke-width="0.3"/>
    <line x1="44.7" y1="33.5" x2="24.6" y2="21.8" stroke="black" stroke-width="0.3"/>
    <line x1="14.6" y1="36.8" x2="14.5" y2="36.9" stroke="black" stroke-width="0.3"/>
    <line x1="14.6" y1="37.0" x2="14.5" y2="37.1" stroke="black" stroke-width="0.3"/>
    <line x1="31.4" y1="27.3" x2="31.3" y2="27.4" stroke="black" stroke-width="0.3"/>
    <line x1="31.4" y1="27.1" x2="31.3" y2="27.2" stroke="black" stroke-width="0.3"/>
    <line x1="14.5" y1="36.9" x2="14.4" y2="36.9" stroke="black" stroke-width="0.3"/>
    <line x1="14.5" y1="37.1" x2="14.4" y2="37.2" stroke="black" stroke-width="0.3"/>
    <line x1="31.3" y1="27.4" x2="31.2" y2="27.5" stroke="black" stroke-width="0.3"/>
    <line x1="31.3" y1="27.2" x2="31.2" y2="27.2" stroke="black" stroke-width="0.3"/>
    <line x1="14.7" y1="36.7" x2="14.6" y2="36.8" stroke="black" stroke-width="0.3"/>
    <line x1="14.7" y1="36.9" x2="14.6" y2="37.0" stroke="black" stroke-width="0.3"/>
    <line x1="31.5" y1="27.2" x2="31.4" y2="27.3" stroke="black" stroke-width="0.3"/>
    <line x1="31.5" y1="27.0" x2="31.4" y2="27.1" stroke="black" stroke-width="0.3"/>
    <line x1="14.4" y1="36.9" x2="14.3" y2="37.0" stroke="black" stroke-width="0.3"/>
    <line x1="14.4" y1="37.2" x2="14.3" y2="37.2" stroke="black" stroke-width="0.3"/>
    <line x1="31.2" y1="27.5" x2="31.0" y2="27.5" stroke="black" stroke-width="0.3"/>
    <line x1="31.2" y1="27.2" x2="31.0" y2="27.3" stroke="black" stroke-width="0.3"/>
    <line x1="14.7" y1="36.6" x2="14.7" y2="36.7" stroke="black" stroke-width="0.3"/>
    <line x1="14.7" y1="36.8" x2="14.7" y2="36.9" stroke="black" stroke-width="0.3"/>
    <line x1="31.5" y1="27.2" x2="31.5" y2="27.2" stroke="black" stroke-width="0.3"/>
    <line x1="31.5" y1="26.9" x2="31.5" y2="27.0" stroke="black" stroke-width="0.3"/>
    <line x1="14.3" y1="37.0" x2="14.1" y2="37.0" stroke="black" stroke-width="0.3"/>
    <line x1="14.3" y1="37.2" x2="14.1" y2="37.2" stroke="black" stroke-width="0.3"/>
    <line x1="31.0" y1="27.5" x2="30.9" y2="27.5" stroke="black" stroke-width="0.3"/>
    <line x1="31.0" y1="27.3" x2="30.9" y2="27.3" stroke="black" stroke-width="0.3"/>
    <line x1="14.7" y1="36.5" x2="14.7" y2="36.6" stroke="black" stroke-width="0.3"/>
    <line x1="14.7" y1="36.7" x2="14.7" y2="36.8" stroke="black" stroke-width="0.3"/>
    <line x1="31.5" y1="27.1" x2="31.5" y2="27.2" stroke="black" stroke-width="0.3"/>
    <line x1="31.5" y1="26.8" x2="31.5" y2="26.9" stroke="black" stroke-width="0.3"/>
    <line x1="14.1" y1="37.0" x2="13.9" y2="37.0" stroke="black" stroke-width="0.3"/>
    <line x1="14.1" y1="37.2" x2="13.9" y2="37.2" stroke="black" stroke-width="0.3"/>
    <line x1="30.9" y1="27.5" x2="30.7" y2="27.5" stroke="black" stroke-width="0.3"/>
    <line x1="30.9" y1="27.3" x2="30.7" y2="27.3" stroke="black" stroke-width="0.3"/>
    <line x1="14.6" y1="36.4" x2="14.7" y2="36.5" stroke="black" stroke-width="0.3"/>
    <line x1="14.6" y1="36.7" x2="14.7" y2="36.7" stroke="black" stroke-width="0.3"/>
    <line x1="31.4" y1="27.0" x2="31.5" y2="27.1" stroke="black" stroke-width="0.3"/>
    <line x1="31.4" y1="26.7" x2="31.5" y2="26.8" stroke="black" stroke-width="0.3"/>
    <line x1="13.9" y1="37.0" x2="13.8" y2="36.9" stroke="black" stroke-width="0.3"/>
    <line x1="13.9" y1="37.2" x2="13.8" y2="37.2" stroke="black" stroke-width="0.3"/>
    <line x1="30.7" y1="27.5" x2="30.6" y2="27.5" stroke="black" stroke-width="0.3"/>
    <line x1="30.7" y1="27.3" x2="30.6" y2="27.2" stroke="black" stroke-width="0.3"/>
    <line x1="14.5" y1="36.4" x2="14.6" y2="36.4" stroke="black" stroke-width="0.3"/>
    <line x1="14.5" y1="36.6" x2="14.6" y2="36.7" stroke="black" stroke-width="0.3"/>
    <line x1="31.3" y1="26.9" x2="31.4" y2="27.0" stroke="black" stroke-width="0.3"/>
    <line x1="31.3" y1="26.7" x2="31.4" y2="26.7" stroke="black" stroke-width="0.3"/>
    <line x1="13.8" y1="36.9" x2="13.6" y2="36.9" stroke="black" stroke-width="0.3"/>
    <line x1="13.8" y1="37.2" x2="13.6" y2="37.1" stroke="black" stroke-width="0.3"/>
    <line x1="30.6" y1="27.5" x2="30.4" y2="27.4" stroke="black" stroke-width="0.3"/>
    <line x1="30.6" y1="27.2" x2="30.4" y2="27.2" stroke="black" stroke-width="0.3"/>
    <line x1="31.3" y1="26.7" x2="31.3" y2="26.9" stroke="black" stroke-width="0.3"/>
    <line x1="30.4" y1="27.2" x2="30.4" y2="27.4" stroke="black" stroke-width="0.3"/>
    <line x1="14.5" y1="36.4" x2="14.5" y2="36.6" stroke="black" stroke-width="0.3"/>
    <line x1="13.6" y1="36.9" x2="13.6" y2="37.1" stroke="black" stroke-width="0.3"/>
    <line x1="12.4" y1="36.1" x2="13.6" y2="36.9" stroke="black" stroke-width="0.3"/>
    <line x1="14.5" y1="36.4" x2="13.3" y2="35.6" stroke="black" stroke-width="0.3"/>
    <line x1="14.5" y1="36.6" x2="13.3" y2="35.9" stroke="black" stroke-width="0.3"/>
    <line x1="12.4" y1="36.4" x2="13.6" y2="37.1" stroke="black" stroke-width="0.3"/>
    <line x1="31.3" y1="26.9" x2="30.0" y2="26.2" stroke="black" stroke-width="0.3"/>
    <line x1="29.2" y1="26.7" x2="30.4" y2="27.4" stroke="black" stroke-width="0.3"/>
    <line x1="31.3" y1="26.7" x2="30.0" y2="25.9" stroke="black" stroke-width="0.3"/>
    <line x1="29.2" y1="26.4" x2="30.4" y2="27.2" stroke="black" stroke-width="0.3"/>
    <line x1="30.0" y1="25.9" x2="30.0" y2="26.2" stroke="black" stroke-width="0.3"/>
    <line x1="29.2" y1="26.4" x2="29.2" y2="26.7" stroke="black" stroke-width="0.3"/>
    <line x1="13.3" y1="35.6" x2="13.3" y2="35.9" stroke="black" stroke-width="0.3"/>
    <line x1="12.4" y1="36.1" x2="12.4" y2="36.4" stroke="black" stroke-width="0.3"/>
    <line x1="13.1" y1="35.6" x2="13.3" y2="35.6" stroke="black" stroke-width="0.3"/>
    <line x1="13.1" y1="35.8" x2="13.3" y2="35.9" stroke="black" stroke-width="0.3"/>
    <line x1="29.2" y1="26.7" x2="29.1" y2="26.6" stroke="black" stroke-width="0.3"/>
    <line x1="29.9" y1="26.1" x2="30.0" y2="26.2" stroke="black" stroke-width="0.3"/>
    <line x1="29.2" y1="26.4" x2="29.1" y2="26.4" stroke="black" stroke-width="0.3"/>
    <line x1="29.9" y1="25.9" x2="30.0" y2="25.9" stroke="black" stroke-width="0.3"/>
    <line x1="12.4" y1="36.1" x2="12.3" y2="36.1" stroke="black" stroke-width="0.3"/>
    <line x1="12.4" y1="36.4" x2="12.3" y2="36.3" stroke="black" stroke-width="0.3"/>
    <line x1="13.0" y1="35.5" x2="13.1" y2="35.6" stroke="black" stroke-width="0.3"/>
    <line x1="13.0" y1="35.8" x2="13.1" y2="35.8" stroke="black" stroke-width="0.3"/>
    <line x1="29.1" y1="26.6" x2="29.0" y2="26.5" stroke="black" stroke-width="0.3"/>
    <line x1="29.8" y1="26.1" x2="29.9" y2="26.1" stroke="black" stroke-width="0.3"/>
    <line x1="29.1" y1="26.4" x2="29.0" y2="26.3" stroke="black" stroke-width="0.3"/>
    <line x1="29.8" y1="25.8" x2="29.9" y2="25.9" stroke="black" stroke-width="0.3"/>
    <line x1="12.3" y1="36.1" x2="12.2" y2="36.0" stroke="black" stroke-width="0.3"/>
    <line x1="12.3" y1="36.3" x2="12.2" y2="36.2" stroke="black" stroke-width="0.3"/>
    <line x1="12.8" y1="35.5" x2="13.0" y2="35.5" stroke="black" stroke-width="0.3"/>
    <line x1="12.8" y1="35.8" x2="13.0" y2="35.8" stroke="black" stroke-width="0.3"/>
    <line x1="29.0" y1="26.5" x2="29.0" y2="26.4" stroke="black" stroke-width="0.3"/>
    <line x1="29.6" y1="26.1" x2="29.8" y2="26.1" stroke="black" stroke-width="0.3"/>
    <line x1="29.0" y1="26.3" x2="29.0" y2="26.2" stroke="black" stroke-width="0.3"/>
    <line x1="29.6" y1="25.8" x2="29.8" y2="25.8" stroke="black" stroke-width="0.3"/>
    <line x1="12.2" y1="36.0" x2="12.2" y2="35.9" stroke="black" stroke-width="0.3"/>
    <line x1="12.2" y1="36.2" x2="12.2" y2="36.1" stroke="black" stroke-width="0.3"/>
    <line x1="12.7" y1="35.5" x2="12.8" y2="35.5" stroke="black" stroke-width="0.3"/>
    <line x1="12.7" y1="35.8" x2="12.8" y2="35.8" stroke="black" stroke-width="0.3"/>
    <line x1="29.0" y1="26.4" x2="29.0" y2="26.3" stroke="black" stroke-width="0.3"/>
    <line x1="29.4" y1="26.1" x2="29.6" y2="26.1" stroke="black" stroke-width="0.3"/>
    <line x1="29.0" y1="26.2" x2="29.0" y2="26.1" stroke="black" stroke-width="0.3"/>
    <line x1="29.4" y1="25.8" x2="29.6" y2="25.8" stroke="black" stroke-width="0.3"/>
    <line x1="12.2" y1="35.9" x2="12.2" y2="35.8" stroke="black" stroke-width="0.3"/>
    <line x1="12.2" y1="36.1" x2="12.2" y2="36.0" stroke="black" stroke-width="0.3"/>
    <line x1="12.5" y1="35.6" x2="12.7" y2="35.5" stroke="black" stroke-width="0.3"/>
    <line x1="12.5" y1="35.8" x2="12.7" y2="35.8" stroke="black" stroke-width="0.3"/>
    <line x1="29.0" y1="26.3" x2="29.1" y2="26.2" stroke="black" stroke-width="0.3"/>
    <line x1="29.0" y1="26.1" x2="29.1" y2="26.0" stroke="black" stroke-width="0.3"/>
    <line x1="29.3" y1="26.1" x2="29.4" y2="26.1" stroke="black" stroke-width="0.3"/>
    <line x1="29.3" y1="25.9" x2="29.4" y2="25.8" stroke="black" stroke-width="0.3"/>
    <line x1="12.2" y1="35.8" x2="12.3" y2="35.7" stroke="black" stroke-width="0.3"/>
    <line x1="12.2" y1="36.0" x2="12.3" y2="35.9" stroke="black" stroke-width="0.3"/>
    <line x1="12.4" y1="35.6" x2="12.5" y2="35.6" stroke="black" stroke-width="0.3"/>
    <line x1="12.4" y1="35.9" x2="12.5" y2="35.8" stroke="black" stroke-width="0.3"/>
    <line x1="29.1" y1="26.2" x2="29.2" y2="26.2" stroke="black" stroke-width="0.3"/>
    <line x1="29.2" y1="26.2" x2="29.3" y2="26.1" stroke="black" stroke-width="0.3"/>
    <line x1="29.1" y1="26.0" x2="29.2" y2="25.9" stroke="black" stroke-width="0.3"/>
    <line x1="29.2" y1="25.9" x2="29.3" y2="25.9" stroke="black" stroke-width="0.3"/>
    <line x1="12.3" y1="35.7" x2="12.4" y2="35.6" stroke="black" stroke-width="0.3"/>
    <line x1="12.3" y1="35.9" x2="12.4" y2="35.9" stroke="black" stroke-width="0.3"/>
    <line x1="5.3" y1="33.2" x2="5.3" y2="33.0" stroke="black" stroke-width="0.3"/>
    <line x1="24.6" y1="22.1" x2="24.6" y2="21.8" stroke="black" stroke-width="0.3"/>
    <line x1="5.3" y1="33.0" x2="5.2" y2="32.9" stroke="black" stroke-width="0.3"/>
    <line x1="5.2" y1="33.1" x2="5.3" y2="33.2" stroke="black" stroke-width="0.3"/>
    <line x1="24.6" y1="22.1" x2="24.5" y2="22.0" stroke="black" stroke-width="0.3"/>
    <line x1="24.5" y1="21.8" x2="24.6" y2="21.8" stroke="black" stroke-width="0.3"/>
    <line x1="5.2" y1="32.9" x2="5.1" y2="32.9" stroke="black" stroke-width="0.3"/>
    <line x1="5.1" y1="33.1" x2="5.2" y2="33.1" stroke="black" stroke-width="0.3"/>
    <line x1="24.5" y1="22.0" x2="24.4" y2="22.0" stroke="black" stroke-width="0.3"/>
    <line x1="24.4" y1="21.7" x2="24.5" y2="21.8" stroke="black" stroke-width="0.3"/>
    <line x1="5.1" y1="32.9" x2="5.1" y2="32.8" stroke="black" stroke-width="0.3"/>
    <line x1="5.1" y1="33.0" x2="5.1" y2="33.1" stroke="black" stroke-width="0.3"/>
    <line x1="24.4" y1="22.0" x2="24.3" y2="21.9" stroke="black" stroke-width="0.3"/>
    <line x1="24.3" y1="21.7" x2="24.4" y2="21.7" stroke="black" stroke-width="0.3"/>
    <line x1="5.1" y1="32.8" x2="5.0" y2="32.7" stroke="black" stroke-width="0.3"/>
    <line x1="5.0" y1="33.0" x2="5.1" y2="33.0" stroke="black" stroke-width="0.3"/>
    <line x1="24.3" y1="21.9" x2="24.2" y2="21.9" stroke="black" stroke-width="0.3"/>
    <line x1="24.2" y1="21.7" x2="24.3" y2="21.7" stroke="black" stroke-width="0.3"/>
    <line x1="5.0" y1="32.7" x2="5.0" y2="32.7" stroke="black" stroke-width="0.3"/>
    <line x1="5.0" y1="32.9" x2="5.0" y2="33.0" stroke="black" stroke-width="0.3"/>
    <line x1="24.2" y1="21.9" x2="24.0" y2="21.9" stroke="black" stroke-width="0.3"/>
    <line x1="24.0" y1="21.7" x2="24.2" y2="21.7" stroke="black" stroke-width="0.3"/>
    <line x1="5.0" y1="32.7" x2="5.0" y2="32.6" stroke="black" stroke-width="0.3"/>
    <line x1="5.0" y1="32.8" x2="5.0" y2="32.9" stroke="black" stroke-width="0.3"/>
    <line x1="24.0" y1="21.9" x2="23.9" y2="21.9" stroke="black" stroke-width="0.3"/>
    <line x1="23.9" y1="21.7" x2="24.0" y2="21.7" stroke="black" stroke-width="0.3"/>
    <line x1="5.0" y1="32.6" x2="5.0" y2="32.5" stroke="black" stroke-width="0.3"/>
    <line x1="5.0" y1="32.8" x2="5.0" y2="32.8" stroke="black" stroke-width="0.3"/>
    <line x1="23.9" y1="21.9" x2="23.8" y2="21.9" stroke="black" stroke-width="0.3"/>
    <line x1="23.8" y1="21.7" x2="23.9" y2="21.7" stroke="black" stroke-width="0.3"/>
    <line x1="5.0" y1="32.5" x2="5.0" y2="32.5" stroke="black" stroke-width="0.3"/>
    <line x1="5.0" y1="32.7" x2="5.0" y2="32.8" stroke="black" stroke-width="0.3"/>
    <line x1="23.8" y1="21.9" x2="23.7" y2="21.9" stroke="black" stroke-width="0.3"/>
    <line x1="23.7" y1="21.7" x2="23.8" y2="21.7" stroke="black" stroke-width="0.3"/>
    <line x1="5.0" y1="32.5" x2="5.1" y2="32.4" stroke="black" stroke-width="0.3"/>
    <line x1="5.1" y1="32.6" x2="5.0" y2="32.7" stroke="black" stroke-width="0.3"/>
    <line x1="23.7" y1="21.9" x2="23.6" y2="21.9" stroke="black" stroke-width="0.3"/>
    <line x1="23.6" y1="21.7" x2="23.7" y2="21.7" stroke="black" stroke-width="0.3"/>
    <line x1="5.1" y1="32.4" x2="5.1" y2="32.3" stroke="black" stroke-width="0.3"/>
    <line x1="5.1" y1="32.6" x2="5.1" y2="32.6" stroke="black" stroke-width="0.3"/>
    <line x1="23.6" y1="21.9" x2="23.5" y2="22.0" stroke="black" stroke-width="0.3"/>
    <line x1="23.5" y1="21.7" x2="23.6" y2="21.7" stroke="black" stroke-width="0.3"/>
    <line x1="5.1" y1="32.3" x2="5.2" y2="32.3" stroke="black" stroke-width="0.3"/>
    <line x1="5.2" y1="32.5" x2="5.1" y2="32.6" stroke="black" stroke-width="0.3"/>
    <line x1="23.5" y1="22.0" x2="23.4" y2="22.0" stroke="black" stroke-width="0.3"/>
    <line x1="23.4" y1="21.8" x2="23.5" y2="21.7" stroke="black" stroke-width="0.3"/>
    <line x1="5.2" y1="32.3" x2="5.3" y2="32.2" stroke="black" stroke-width="0.3"/>
    <line x1="5.3" y1="32.5" x2="5.2" y2="32.5" stroke="black" stroke-width="0.3"/>
    <line x1="23.4" y1="22.0" x2="23.3" y2="22.1" stroke="black" stroke-width="0.3"/>
    <line x1="23.3" y1="21.8" x2="23.4" y2="21.8" stroke="black" stroke-width="0.3"/>
    <line x1="7.8" y1="30.8" x2="5.3" y2="32.2" stroke="black" stroke-width="0.3"/>
    <line x1="5.3" y1="32.5" x2="5.3" y2="32.2" stroke="black" stroke-width="0.3"/>
    <line x1="7.8" y1="30.8" x2="7.8" y2="31.0" stroke="black" stroke-width="0.3"/>
    <line x1="7.8" y1="31.0" x2="5.3" y2="32.5" stroke="black" stroke-width="0.3"/>
    <line x1="8.0" y1="30.4" x2="8.0" y2="30.5" stroke="black" stroke-width="0.3"/>
    <line x1="8.0" y1="30.5" x2="8.0" y2="30.5" stroke="black" stroke-width="0.3"/>
    <line x1="8.0" y1="30.5" x2="8.0" y2="30.5" stroke="black" stroke-width="0.3"/>
    <line x1="8.0" y1="30.5" x2="7.9" y2="30.6" stroke="black" stroke-width="0.3"/>
    <line x1="7.9" y1="30.6" x2="7.9" y2="30.6" stroke="black" stroke-width="0.3"/>
    <line x1="7.9" y1="30.6" x2="7.9" y2="30.6" stroke="black" stroke-width="0.3"/>
    <line x1="7.9" y1="30.6" x2="7.9" y2="30.7" stroke="black" stroke-width="0.3"/>
    <line x1="7.9" y1="30.7" x2="7.9" y2="30.7" stroke="black" stroke-width="0.3"/>
    <line x1="7.9" y1="30.7" x2="7.8" y2="30.7" stroke="black" stroke-width="0.3"/>
    <line x1="7.8" y1="30.7" x2="7.8" y2="30.7" stroke="black" stroke-width="0.3"/>
    <line x1="7.8" y1="30.7" x2="7.8" y2="30.8" stroke="black" stroke-width="0.3"/>
    <line x1="7.8" y1="30.8" x2="7.8" y2="30.8" stroke="black" stroke-width="0.3"/>
    <line x1="8.0" y1="30.4" x2="8.2" y2="30.3" stroke="black" stroke-width="0.3"/>
    <line x1="8.2" y1="30.3" x2="8.2" y2="30.4" stroke="black" stroke-width="0.3"/>
    <line x1="8.2" y1="30.4" x2="8.2" y2="30.5" stroke="black" stroke-width="0.3"/>
    <line x1="8.2" y1="30.5" x2="8.1" y2="30.5" stroke="black" stroke-width="0.3"/>
    <line x1="8.1" y1="30.5" x2="8.1" y2="30.6" stroke="black" stroke-width="0.3"/>
    <line x1="8.1" y1="30.6" x2="8.1" y2="30.7" stroke="black" stroke-width="0.3"/>
    <line x1="8.1" y1="30.7" x2="8.1" y2="30.7" stroke="black" stroke-width="0.3"/>
    <line x1="8.1" y1="30.7" x2="8.0" y2="30.8" stroke="black" stroke-width="0.3"/>
    <line x1="8.0" y1="30.8" x2="8.0" y2="30.8" stroke="black" stroke-width="0.3"/>
    <line x1="8.0" y1="30.8" x2="7.9" y2="30.9" stroke="black" stroke-width="0.3"/>
    <line x1="7.9" y1="30.9" x2="7.9" y2="30.9" stroke="black" stroke-width="0.3"/>
    <line x1="7.9" y1="30.9" x2="7.8" y2="31.0" stroke="black" stroke-width="0.3"/>
    <line x1="7.8" y1="31.0" x2="7.8" y2="31.0" stroke="black" stroke-width="0.3"/>
    <line x1="8.2" y1="24.0" x2="8.2" y2="30.3" stroke="black" stroke-width="0.3"/>
    <line x1="8.4" y1="23.6" x2="8.4" y2="23.6" stroke="black" stroke-width="0.3"/>
    <line x1="8.4" y1="23.6" x2="8.3" y2="23.7" stroke="black" stroke-width="0.3"/>
    <line x1="8.3" y1="23.7" x2="8.3" y2="23.7" stroke="black" stroke-width="0.3"/>
    <line x1="8.3" y1="23.7" x2="8.3" y2="23.7" stroke="black" stroke-width="0.3"/>
    <line x1="8.3" y1="23.7" x2="8.3" y2="23.7" stroke="black" stroke-width="0.3"/>
    <line x1="8.3" y1="23.7" x2="8.2" y2="23.8" stroke="black" stroke-width="0.3"/>
    <line x1="8.2" y1="23.8" x2="8.2" y2="23.8" stroke="black" stroke-width="0.3"/>
    <line x1="8.2" y1="23.8" x2="8.2" y2="23.8" stroke="black" stroke-width="0.3"/>
    <line x1="8.2" y1="23.8" x2="8.2" y2="23.9" stroke="black" stroke-width="0.3"/>
    <line x1="8.2" y1="23.9" x2="8.2" y2="23.9" stroke="black" stroke-width="0.3"/>
    <line x1="8.2" y1="23.9" x2="8.2" y2="23.9" stroke="black" stroke-width="0.3"/>
    <line x1="8.2" y1="23.9" x2="8.2" y2="24.0" stroke="black" stroke-width="0.3"/>
    <line x1="20.2" y1="16.8" x2="8.4" y2="23.6" stroke="black" stroke-width="0.3"/>
    <line x1="20.2" y1="16.6" x2="20.2" y2="16.8" stroke="black" stroke-width="0.3"/>
    <line x1="8.4" y1="23.4" x2="8.4" y2="23.6" stroke="black" stroke-width="0.3"/>
    <line x1="20.2" y1="16.6" x2="8.4" y2="23.4" stroke="black" stroke-width="0.3"/>
    <line x1="20.6" y1="16.8" x2="20.6" y2="16.7" stroke="black" stroke-width="0.3"/>
    <line x1="20.6" y1="16.7" x2="20.6" y2="16.7" stroke="black" stroke-width="0.3"/>
    <line x1="20.6" y1="16.7" x2="20.6" y2="16.6" stroke="black" stroke-width="0.3"/>
    <line x1="20.6" y1="16.6" x2="20.5" y2="16.6" stroke="black" stroke-width="0.3"/>
    <line x1="20.5" y1="16.6" x2="20.5" y2="16.6" stroke="black" stroke-width="0.3"/>
    <line x1="20.5" y1="16.6" x2="20.5" y2="16.5" stroke="black" stroke-width="0.3"/>
    <line x1="20.5" y1="16.5" x2="20.4" y2="16.5" stroke="black" stroke-width="0.3"/>
    <line x1="20.4" y1="16.5" x2="20.4" y2="16.5" stroke="black" stroke-width="0.3"/>
    <line x1="20.4" y1="16.5" x2="20.3" y2="16.5" stroke="black" stroke-width="0.3"/>
    <line x1="20.3" y1="16.5" x2="20.3" y2="16.5" stroke="black" stroke-width="0.3"/>
    <line x1="20.3" y1="16.5" x2="20.2" y2="16.5" stroke="black" stroke-width="0.3"/>
    <line x1="20.2" y1="16.5" x2="20.2" y2="16.6" stroke="black" stroke-width="0.3"/>
    <line x1="20.6" y1="16.8" x2="20.4" y2="16.9" stroke="black" stroke-width="0.3"/>
    <line x1="20.4" y1="16.9" x2="20.4" y2="16.9" stroke="black" stroke-width="0.3"/>
    <line x1="20.4" y1="16.9" x2="20.4" y2="16.9" stroke="black" stroke-width="0.3"/>
    <line x1="20.4" y1="16.9" x2="20.4" y2="16.8" stroke="black" stroke-width="0.3"/>
    <line x1="20.4" y1="16.8" x2="20.4" y2="16.8" stroke="black" stroke-width="0.3"/>
    <line x1="20.4" y1="16.8" x2="20.3" y2="16.8" stroke="black" stroke-width="0.3"/>
    <line x1="20.3" y1="16.8" x2="20.3" y2="16.8" stroke="black" stroke-width="0.3"/>
    <line x1="20.3" y1="16.8" x2="20.3" y2="16.8" stroke="black" stroke-width="0.3"/>
    <line x1="20.3" y1="16.8" x2="20.3" y2="16.8" stroke="black" stroke-width="0.3"/>
    <line x1="20.3" y1="16.8" x2="20.3" y2="16.8" stroke="black" stroke-width="0.3"/>
    <line x1="20.3" y1="16.8" x2="20.2" y2="16.8" stroke="black" stroke-width="0.3"/>
    <line x1="20.2" y1="16.8" x2="20.2" y2="16.8" stroke="black" stroke-width="0.3"/>
    <line x1="20.2" y1="16.8" x2="20.2" y2="16.8" stroke="black" stroke-width="0.3"/>
    <line x1="20.6" y1="23.2" x2="20.6" y2="16.8" stroke="black" stroke-width="0.3"/>
    <line x1="8.4" y1="23.4" x2="8.3" y2="23.4" stroke="black" stroke-width="0.3"/>
    <line x1="8.3" y1="23.4" x2="8.3" y2="23.5" stroke="black" stroke-width="0.3"/>
    <line x1="8.3" y1="23.5" x2="8.2" y2="23.5" stroke="black" stroke-width="0.3"/>
    <line x1="8.2" y1="23.5" x2="8.2" y2="23.6" stroke="black" stroke-width="0.3"/>
    <line x1="8.2" y1="23.6" x2="8.1" y2="23.6" stroke="black" stroke-width="0.3"/>
    <line x1="8.1" y1="23.6" x2="8.1" y2="23.7" stroke="black" stroke-width="0.3"/>
    <line x1="8.1" y1="23.7" x2="8.1" y2="23.8" stroke="black" stroke-width="0.3"/>
    <line x1="8.1" y1="23.8" x2="8.0" y2="23.8" stroke="black" stroke-width="0.3"/>
    <line x1="8.0" y1="23.8" x2="8.0" y2="23.9" stroke="black" stroke-width="0.3"/>
    <line x1="8.0" y1="23.9" x2="8.0" y2="24.0" stroke="black" stroke-width="0.3"/>
    <line x1="8.0" y1="24.0" x2="8.0" y2="24.0" stroke="black" stroke-width="0.3"/>
    <line x1="8.0" y1="24.0" x2="8.0" y2="24.1" stroke="black" stroke-width="0.3"/>
    <line x1="8.0" y1="24.1" x2="8.2" y2="24.0" stroke="black" stroke-width="0.3"/>
    <line x1="8.0" y1="24.1" x2="8.0" y2="30.4" stroke="black" stroke-width="0.3"/>
    <line x1="20.4" y1="23.3" x2="20.4" y2="16.9" stroke="black" stroke-width="0.3"/>
    <line x1="20.6" y1="23.2" x2="20.4" y2="23.3" stroke="black" stroke-width="0.3"/>
    <line x1="20.8" y1="23.3" x2="20.8" y2="23.3" stroke="black" stroke-width="0.3"/>
    <line x1="20.8" y1="23.3" x2="20.7" y2="23.3" stroke="black" stroke-width="0.3"/>
    <line x1="20.7" y1="23.3" x2="20.7" y2="23.3" stroke="black" stroke-width="0.3"/>
    <line x1="20.7" y1="23.3" x2="20.7" y2="23.3" stroke="black" stroke-width="0.3"/>
    <line x1="20.7" y1="23.3" x2="20.7" y2="23.3" stroke="black" stroke-width="0.3"/>
    <line x1="20.7" y1="23.3" x2="20.6" y2="23.3" stroke="black" stroke-width="0.3"/>
    <line x1="20.6" y1="23.3" x2="20.6" y2="23.3" stroke="black" stroke-width="0.3"/>
    <line x1="20.6" y1="23.3" x2="20.6" y2="23.3" stroke="black" stroke-width="0.3"/>
    <line x1="20.6" y1="23.3" x2="20.6" y2="23.2" stroke="black" stroke-width="0.3"/>
    <line x1="20.6" y1="23.2" x2="20.6" y2="23.2" stroke="black" stroke-width="0.3"/>
    <line x1="20.6" y1="23.2" x2="20.6" y2="23.2" stroke="black" stroke-width="0.3"/>
    <line x1="20.6" y1="23.2" x2="20.6" y2="23.2" stroke="black" stroke-width="0.3"/>
    <line x1="20.8" y1="23.3" x2="20.8" y2="23.5" stroke="black" stroke-width="0.3"/>
    <line x1="20.8" y1="23.5" x2="20.7" y2="23.5" stroke="black" stroke-width="0.3"/>
    <line x1="20.7" y1="23.5" x2="20.7" y2="23.6" stroke="black" stroke-width="0.3"/>
    <line x1="20.7" y1="23.6" x2="20.6" y2="23.6" stroke="black" stroke-width="0.3"/>
    <line x1="20.6" y1="23.6" x2="20.6" y2="23.6" stroke="black" stroke-width="0.3"/>
    <line x1="20.6" y1="23.6" x2="20.5" y2="23.6" stroke="black" stroke-width="0.3"/>
    <line x1="20.5" y1="23.6" x2="20.5" y2="23.5" stroke="black" stroke-width="0.3"/>
    <line x1="20.5" y1="23.5" x2="20.5" y2="23.5" stroke="black" stroke-width="0.3"/>
    <line x1="20.5" y1="23.5" x2="20.4" y2="23.5" stroke="black" stroke-width="0.3"/>
    <line x1="20.4" y1="23.5" x2="20.4" y2="23.4" stroke="black" stroke-width="0.3"/>
    <line x1="20.4" y1="23.4" x2="20.4" y2="23.4" stroke="black" stroke-width="0.3"/>
    <line x1="20.4" y1="23.4" x2="20.4" y2="23.3" stroke="black" stroke-width="0.3"/>
    <line x1="20.4" y1="23.3" x2="20.4" y2="23.3" stroke="black" stroke-width="0.3"/>
    <line x1="23.3" y1="22.1" x2="20.8" y2="23.5" stroke="black" stroke-width="0.3"/>
    <line x1="23.3" y1="22.1" x2="23.3" y2="21.8" stroke="black" stroke-width="0.3"/>
    <line x1="23.3" y1="21.8" x2="20.8" y2="23.3" stroke="black" stroke-width="0.3"/>
  </g>
  </g>
  <g id="drawing_group" transform="translate(-19.41, -6.67)">
  <g stroke="black" stroke-width="0.5" fill="none">
    <path d="M 66.40,83.25 A 2.50,2.50 0 0,1 68.90,80.75"/>
    <line x1="78.85" y1="80.75" x2="68.90" y2="80.75"/>
    <line x1="78.85" y1="80.75" x2="80.32" y2="80.75"/>
    <line x1="102.12" y1="80.75" x2="80.32" y2="80.75"/>
    <line x1="103.60" y1="80.75" x2="102.12" y2="80.75"/>
    <line x1="150.40" y1="80.75" x2="103.60" y2="80.75"/>
    <line x1="151.88" y1="80.75" x2="150.40" y2="80.75"/>
    <line x1="173.68" y1="80.75" x2="151.88" y2="80.75"/>
    <line x1="173.68" y1="80.75" x2="175.15" y2="80.75"/>
    <line x1="185.10" y1="80.75" x2="175.15" y2="80.75"/>
    <path d="M 185.10,80.75 A 2.50,2.50 0 0,1 187.60,83.25"/>
    <line x1="187.60" y1="83.25" x2="187.60" y2="163.25"/>
    <path d="M 187.60,163.25 A 2.50,2.50 0 0,1 185.10,165.75"/>
    <line x1="185.10" y1="165.75" x2="175.15" y2="165.75"/>
    <line x1="175.15" y1="165.75" x2="173.68" y2="165.75"/>
    <line x1="173.68" y1="165.75" x2="151.88" y2="165.75"/>
    <line x1="150.40" y1="165.75" x2="151.88" y2="165.75"/>
    <line x1="150.40" y1="165.75" x2="103.60" y2="165.75"/>
    <line x1="102.12" y1="165.75" x2="103.60" y2="165.75"/>
    <line x1="102.12" y1="165.75" x2="80.32" y2="165.75"/>
    <line x1="80.32" y1="165.75" x2="78.85" y2="165.75"/>
    <line x1="78.85" y1="165.75" x2="68.90" y2="165.75"/>
    <path d="M 68.90,165.75 A 2.50,2.50 0 0,1 66.40,163.25"/>
    <line x1="66.40" y1="83.25" x2="66.40" y2="163.25"/>
    <path d="M 73.15,133.25 A 1.75,1.75 0 0,0 69.65,133.25"/>
    <line x1="69.65" y1="138.25" x2="69.65" y2="133.25"/>
    <path d="M 69.65,138.25 A 1.75,1.75 0 0,0 73.15,138.25"/>
    <line x1="73.15" y1="133.25" x2="73.15" y2="138.25"/>
    <line x1="184.35" y1="133.25" x2="184.35" y2="138.25"/>
    <path d="M 184.35,133.25 A 1.75,1.75 0 0,0 180.85,133.25"/>
    <line x1="180.85" y1="138.25" x2="180.85" y2="133.25"/>
    <path d="M 180.85,138.25 A 1.75,1.75 0 0,0 184.35,138.25"/>
  </g>
  <g stroke="red" stroke-width="0.35" stroke-dasharray="2,2" fill="none">
    <line x1="79.59" y1="80.75" x2="79.59" y2="165.75"/>
    <line x1="102.86" y1="165.75" x2="102.86" y2="80.75"/>
    <line x1="174.41" y1="80.75" x2="174.41" y2="165.75"/>
    <line x1="151.14" y1="165.75" x2="151.14" y2="80.75"/>
  </g>
  <g>
    <line x1="79.59" y1="123.25" x2="66.40" y2="123.25" stroke="blue" stroke-width="0.3"/>
    <polygon points="79.59,123.25 77.77,122.16 77.77,124.34" fill="blue"/>
    <polygon points="66.40,123.25 68.21,122.16 68.21,124.34" fill="blue"/>
    <text x="54.65" y="121.25" text-anchor="middle" font-size="5" fill="blue">1.038"</text>
    <text x="54.65" y="128.25" text-anchor="middle" font-size="5" fill="blue">1-1/16"</text>
  </g>
  <g>
    <line x1="102.86" y1="107.25" x2="66.40" y2="107.25" stroke="blue" stroke-width="0.3"/>
    <polygon points="102.86,107.25 101.04,106.16 101.04,108.34" fill="blue"/>
    <polygon points="66.40,107.25 68.21,106.16 68.21,108.34" fill="blue"/>
    <text x="54.65" y="105.25" text-anchor="middle" font-size="5" fill="blue">2.871"</text>
    <text x="54.65" y="112.25" text-anchor="middle" font-size="5" fill="blue">2-7/8"</text>
  </g>
  <g>
    <line x1="174.41" y1="123.25" x2="187.60" y2="123.25" stroke="blue" stroke-width="0.3"/>
    <polygon points="174.41,123.25 176.23,124.34 176.23,122.16" fill="blue"/>
    <polygon points="187.60,123.25 185.79,124.34 185.79,122.16" fill="blue"/>
    <text x="199.35" y="121.25" text-anchor="middle" font-size="5" fill="blue">1.038"</text>
    <text x="199.35" y="128.25" text-anchor="middle" font-size="5" fill="blue">1-1/16"</text>
  </g>
  <g>
    <line x1="151.14" y1="139.25" x2="187.60" y2="139.25" stroke="blue" stroke-width="0.3"/>
    <polygon points="151.14,139.25 152.96,140.34 152.96,138.16" fill="blue"/>
    <polygon points="187.60,139.25 185.79,140.34 185.79,138.16" fill="blue"/>
    <text x="199.35" y="137.25" text-anchor="middle" font-size="5" fill="blue">2.871"</text>
    <text x="199.35" y="144.25" text-anchor="middle" font-size="5" fill="blue">2-7/8"</text>
  </g>
  <g stroke="#999" stroke-width="0.3" stroke-dasharray="2,2" fill="none">
    <rect x="66.40" y="80.75" width="121.21" height="85.00"/>
  </g>
  <g stroke="#666" stroke-width="0.3" fill="none">
    <line x1="66.40" y1="170.75" x2="187.60" y2="170.75"/>
    <line x1="66.40" y1="165.75" x2="66.40" y2="170.75" stroke="#666" stroke-width="0.3" stroke-dasharray="2,2"/>
    <line x1="187.60" y1="165.75" x2="187.60" y2="170.75" stroke="#666" stroke-width="0.3" stroke-dasharray="2,2"/>
    <polygon points="66.40,170.75 69.40,169.25 69.40,172.25" fill="#666"/>
    <polygon points="187.60,170.75 184.60,169.25 184.60,172.25" fill="#666"/>
    <text x="127.00" y="175.75" text-anchor="middle" font-size="5" fill="#666">9.544"</text>
    <text x="127.00" y="180.75" text-anchor="middle" font-size="5" fill="#666">9-9/16"</text>
    <line x1="222.41" y1="80.75" x2="222.41" y2="165.75"/>
    <line x1="187.60" y1="80.75" x2="222.41" y2="80.75" stroke="#666" stroke-width="0.3" stroke-dasharray="2,2"/>
    <line x1="187.60" y1="165.75" x2="222.41" y2="165.75" stroke="#666" stroke-width="0.3" stroke-dasharray="2,2"/>
    <polygon points="222.41,80.75 220.91,83.75 223.91,83.75" fill="#666"/>
    <polygon points="222.41,165.75 220.91,162.75 223.91,162.75" fill="#666"/>
    <text x="227.41" y="123.25" text-anchor="middle" font-size="5" fill="#666" transform="rotate(-90 227.41 123.25)">6.693"</text>
    <text x="233.41" y="123.25" text-anchor="middle" font-size="5" fill="#666" transform="rotate(-90 233.41 123.25)">6-11/16"</text>
  </g>
  </g>
</svg>